<svg xmlns="http://www.w3.org/2000/svg" width="14" height="14" viewBox="0 0 14 14" fill="none">
  <path d="M5.01083 7.88067L8.995 10.2023M8.98917 3.79734L5.01083 6.119M12.25 2.9165C12.25 3.883 11.4665 4.6665 10.5 4.6665C9.5335 4.6665 8.75 3.883 8.75 2.9165C8.75 1.95001 9.5335 1.1665 10.5 1.1665C11.4665 1.1665 12.25 1.95001 12.25 2.9165ZM5.25 6.99984C5.25 7.96634 4.4665 8.74984 3.5 8.74984C2.5335 8.74984 1.75 7.96634 1.75 6.99984C1.75 6.03334 2.5335 5.24984 3.5 5.24984C4.4665 5.24984 5.25 6.03334 5.25 6.99984ZM12.25 11.0832C12.25 12.0497 11.4665 12.8332 10.5 12.8332C9.5335 12.8332 8.75 12.0497 8.75 11.0832C8.75 10.1167 9.5335 9.33317 10.5 9.33317C11.4665 9.33317 12.25 10.1167 12.25 11.0832Z" stroke="white" stroke-linecap="round" stroke-linejoin="round"/>
</svg>