<svg xmlns="http://www.w3.org/2000/svg" width="28" height="28" viewBox="0 0 28 28" fill="none">
  <g filter="url(#filter0_d_1267_335)">
    <path fill-rule="evenodd" clip-rule="evenodd" d="M14 8.66667C11.0545 8.66667 8.66667 11.0545 8.66667 14C8.66667 16.9455 11.0545 19.3333 14 19.3333C16.9455 19.3333 19.3333 16.9455 19.3333 14C19.3333 13.2636 19.9303 12.6667 20.6667 12.6667C21.403 12.6667 22 13.2636 22 14C22 18.4183 18.4183 22 14 22C9.58172 22 6 18.4183 6 14C6 9.58172 9.58172 6 14 6C14.7364 6 15.3333 6.59695 15.3333 7.33333C15.3333 8.06971 14.7364 8.66667 14 8.66667Z" fill="url(#paint0_linear_1267_335)"/>
  </g>
  <defs>
    <filter id="filter0_d_1267_335" x="0.666667" y="0.733333" width="26.6667" height="26.6667" filterUnits="userSpaceOnUse" color-interpolation-filters="sRGB">
      <feFlood flood-opacity="0" result="BackgroundImageFix"/>
      <feColorMatrix in="SourceAlpha" type="matrix" values="0 0 0 0 0 0 0 0 0 0 0 0 0 0 0 0 0 0 127 0" result="hardAlpha"/>
      <feOffset dy="0.0666667"/>
      <feGaussianBlur stdDeviation="2.66667"/>
      <feComposite in2="hardAlpha" operator="out"/>
      <feColorMatrix type="matrix" values="0 0 0 0 0.121569 0 0 0 0 0.258824 0 0 0 0 0.4 0 0 0 0.04 0"/>
      <feBlend mode="normal" in2="BackgroundImageFix" result="effect1_dropShadow_1267_335"/>
      <feBlend mode="normal" in="SourceGraphic" in2="effect1_dropShadow_1267_335" result="shape"/>
    </filter>
    <linearGradient id="paint0_linear_1267_335" x1="6" y1="9.55551" x2="22.628" y2="12.291" gradientUnits="userSpaceOnUse">
      <stop stop-color="white"/>
      <stop offset="0.276391" stop-color="#CDD8E7"/>
      <stop offset="0.474888" stop-color="#BAC9DF"/>
      <stop offset="0.703159" stop-color="#D4D5D6"/>
      <stop offset="1" stop-color="#A0B3CA"/>
    </linearGradient>
  </defs>
</svg>