<svg xmlns="http://www.w3.org/2000/svg" width="24" height="24" viewBox="0 0 24 24" fill="none">
  <path d="M16.7295 13.6385C17.4201 13.6385 17.98 13.0787 17.98 12.388C17.98 11.6974 17.4201 11.1376 16.7295 11.1376C16.0389 11.1376 15.479 11.6974 15.479 12.388C15.479 13.0787 16.0389 13.6385 16.7295 13.6385Z" fill="black"/>
  <path d="M8.29686 13.6613C8.98748 13.6613 9.54734 13.1014 9.54734 12.4108C9.54734 11.7202 8.98748 11.1603 8.29686 11.1603C7.60624 11.1603 7.04639 11.7202 7.04639 12.4108C7.04639 13.1014 7.60624 13.6613 8.29686 13.6613Z" fill="black"/>
  <path d="M11.9981 0C5.37192 0 0 5.37192 0 11.9981C0 17.1727 3.27514 21.5806 7.86527 23.2657L10.9848 19.9184L8.54839 18.8083L12.7647 16.1898H12.7552L12.7514 14.778C12.9583 14.5901 13.0911 14.3226 13.0892 14.0209C13.0892 13.4554 12.6281 13 12.0645 13.0019C11.4991 13.0019 11.0436 13.463 11.0455 14.0266C11.0455 14.3378 11.1898 14.6129 11.4099 14.8008L11.4137 16.1935L7.65085 16.203C5.28653 16.2087 3.36622 14.2979 3.35863 11.9355C3.35294 9.57116 5.26376 7.65085 7.62619 7.64326L16.3567 7.62049C16.3567 7.62049 16.3643 7.62049 16.37 7.62049C18.7343 7.6148 20.6546 9.52562 20.6622 11.888C20.6679 14.2524 18.7571 16.1727 16.3947 16.1803C16.3909 16.1803 16.3871 16.1803 16.3814 16.1803L14.4687 16.186L12.3776 18.4307L14.8842 19.5522L8.4611 23.4687C9.58064 23.814 10.7685 24 12.0019 24C18.6281 24 24 18.6281 24 12.0019C24 5.37571 18.6262 0 11.9981 0Z" fill="black"/>
</svg>