<svg width="252" height="105" viewBox="0 0 252 105" fill="none" xmlns="http://www.w3.org/2000/svg">
<path d="M89.4843 55.5457H101.361L87.7028 101H74.638L89.4843 55.5457Z" fill="#356CFF"/>
<path fill-rule="evenodd" clip-rule="evenodd" d="M96.0167 1.00057H112.645L118.583 48.273H104.924L103.737 39.7882H79.9827L67.5117 55.5457H85.3273L43.1638 101H28.3174L22.3789 55.5457H33.6621L38.4129 91.3031L58.604 68.2729H44.3515L96.0167 1.00057ZM100.768 13.1217L87.7028 29.4852H103.143L100.768 13.1217Z" fill="#356CFF"/>
<path d="M37.2252 1.00057L22.3789 48.273H36.0375L40.7884 30.6974L62.6727 30.6974L69.6727 21.0005L43.7576 21.0004L46.7269 11.9096L77.6727 11.9096L86 1.00057L37.2252 1.00057Z" fill="#356CFF"/>
<path fill-rule="evenodd" clip-rule="evenodd" d="M108.488 55.5457L94.2351 101C94.2351 101 105.518 101 120.959 101C136.399 101 144.078 93.0133 148.276 79.788C152.432 68.0157 153.027 55.5457 136.399 55.5457C119.771 55.5457 108.488 55.5457 108.488 55.5457ZM109.081 90.697L116.802 65.8487C116.802 65.8487 120.959 65.8487 132.242 65.8487C143.525 65.8487 137.586 78.5759 135.211 84.0304C133.307 88.4021 127.491 90.697 122.74 90.697C117.989 90.697 109.081 90.697 109.081 90.697Z" fill="#356CFF"/>
<path d="M173.188 1.00056L168.625 11.9096C168.625 11.9096 149.386 11.9092 142.525 11.9095C135.664 11.9098 136.586 20.3944 141.337 20.3944H159.747C168.654 20.3944 166.961 33.6899 163.904 38.5761C160.467 44.0675 157.371 48.273 148.463 48.273L125.188 48.273L124 37.97L147.87 37.97C153.808 37.97 156.184 29.4852 151.433 29.4852H131.836C120.142 29.4852 125.897 1.00043 141.337 1.00043L173.188 1.00056Z" fill="#356CFF"/>
<path d="M179.938 1.00056L175.688 11.9096L191.221 11.9096L179.938 48.273H192.409L203.692 11.9096L219.132 11.9095L223.289 1.00043L179.938 1.00056Z" fill="#356CFF"/>
<path d="M161.341 55.5457H202.845L198.5 65.8487H169.654L167.279 73.7268H188.5L184.749 82.8177H164.31L161.934 90.697H190.251L186.624 101H146.494L161.341 55.5457Z" fill="#356CFF"/>
<path fill-rule="evenodd" clip-rule="evenodd" d="M230.821 54.9391C255.169 54.9391 251.776 67.0602 249.231 77.9692C246.686 88.8783 240.917 101 217.757 101C194.596 101 195.606 88.8783 199.347 77.9692C203.089 67.0602 206.473 54.9391 230.821 54.9391ZM237.948 77.9692C239.984 70.6965 240.917 65.242 228.446 65.242C215.975 65.242 211.818 71.9087 210.037 77.9692C208.255 84.0298 208.255 91.3025 219.538 91.3025C230.821 91.3025 235.911 85.2419 237.948 77.9692Z" fill="#356CFF"/>
<path d="M173.188 1.00056L168.625 11.9096C168.625 11.9096 149.386 11.9092 142.525 11.9095C135.664 11.9098 136.586 20.3944 141.337 20.3944M173.188 1.00056C173.188 1.00056 156.777 1.00043 141.337 1.00043M173.188 1.00056L141.337 1.00043M141.337 20.3944C146.088 20.3944 150.839 20.3944 159.747 20.3944M141.337 20.3944H159.747M159.747 20.3944C168.654 20.3944 166.961 33.6899 163.904 38.5761C160.467 44.0675 157.371 48.273 148.463 48.273M148.463 48.273C139.556 48.273 125.188 48.273 125.188 48.273M148.463 48.273L125.188 48.273M125.188 48.273L124 37.97M124 37.97C124 37.97 141.931 37.97 147.87 37.97M124 37.97L147.87 37.97M147.87 37.97C153.808 37.97 156.184 29.4852 151.433 29.4852M151.433 29.4852C146.682 29.4852 138.962 29.4852 131.836 29.4852M151.433 29.4852H131.836M131.836 29.4852C120.142 29.4852 125.897 1.00043 141.337 1.00043M37.2252 1.00057L22.3789 48.273H36.0375L40.7884 30.6974L62.6727 30.6974L69.6727 21.0005L43.7576 21.0004L46.7269 11.9096L77.6727 11.9096L86 1.00057L37.2252 1.00057ZM96.0167 1.00057H112.645L118.583 48.273H104.924L103.737 39.7882H79.9827L67.5117 55.5457H85.3273L43.1638 101H28.3174L22.3789 55.5457H33.6621L38.4129 91.3031L58.604 68.2729H44.3515L96.0167 1.00057ZM87.7028 29.4852L100.768 13.1217L103.143 29.4852H87.7028ZM89.4843 55.5457H101.361L87.7028 101H74.638L89.4843 55.5457ZM108.488 55.5457L94.2351 101C94.2351 101 105.518 101 120.959 101C136.399 101 144.078 93.0133 148.276 79.788C152.432 68.0157 153.027 55.5457 136.399 55.5457C119.771 55.5457 108.488 55.5457 108.488 55.5457ZM116.802 65.8487L109.081 90.697C109.081 90.697 117.989 90.697 122.74 90.697C127.491 90.697 133.307 88.4021 135.211 84.0304C137.586 78.5759 143.525 65.8487 132.242 65.8487C120.959 65.8487 116.802 65.8487 116.802 65.8487ZM179.938 1.00056L175.688 11.9096L191.221 11.9096L179.938 48.273H192.409L203.692 11.9096L219.132 11.9095L223.289 1.00043L179.938 1.00056ZM161.341 55.5457H202.845L198.5 65.8487H169.654L167.279 73.7268H188.5L184.749 82.8177H164.31L161.934 90.697H190.251L186.624 101H146.494L161.341 55.5457ZM230.821 54.9391C255.169 54.9391 251.776 67.0602 249.231 77.9692C246.686 88.8783 240.917 101 217.757 101C194.596 101 195.606 88.8783 199.347 77.9692C203.089 67.0602 206.473 54.9391 230.821 54.9391ZM228.446 65.242C240.917 65.242 239.984 70.6965 237.948 77.9692C235.911 85.2419 230.821 91.3025 219.538 91.3025C208.255 91.3025 208.255 84.0298 210.037 77.9692C211.818 71.9087 215.975 65.242 228.446 65.242Z" stroke="#356CFF" stroke-width="1.18771"/>
<path d="M15.2524 55.5451L21.191 100.999L24.7541 100.999L18.8156 55.5451L15.2524 55.5451Z" fill="#356CFF" stroke="#356CFF" stroke-width="1.18771"/>
<path d="M8.12646 55.5451L14.065 100.999L15.2527 100.999L9.31417 55.5451L8.12646 55.5451Z" fill="#356CFF" stroke="#356CFF" stroke-width="1.18771"/>
<path d="M1 55.5451L6.93853 100.999L7.53239 100.999L1.59385 55.5451L1 55.5451Z" fill="#356CFF" stroke="#356CFF" stroke-width="0.593853"/>
<path d="M15.2524 48.2724L30.0988 1H33.6619L18.8156 48.2724H15.2524Z" fill="#356CFF" stroke="#356CFF" stroke-width="1.18771"/>
<path d="M8.12646 48.2724L22.9728 1H24.1605L9.31417 48.2724H8.12646Z" fill="#356CFF" stroke="#356CFF" stroke-width="1.18771"/>
<path d="M1 48.2724L15.8463 1H16.4402L1.59385 48.2724H1Z" fill="#356CFF" stroke="#356CFF" stroke-width="0.593853"/>
<path d="M85.3271 55.5457H67.5116L87 12.7363L44.3513 68.2729H58.6038L43.1636 101L85.3271 55.5457Z" fill="#FDC717" stroke="#FDC717" stroke-width="1.18771" stroke-miterlimit="16"/>
</svg>
