<svg xmlns="http://www.w3.org/2000/svg" width="12" height="13" viewBox="0 0 12 13" fill="none">
  <path fill-rule="evenodd" clip-rule="evenodd" d="M4 2C4 1.72386 4.22386 1.5 4.5 1.5H7.5C7.77614 1.5 8 1.72386 8 2C8 2.27614 7.77614 2.5 7.5 2.5H4.5C4.22386 2.5 4 2.27614 4 2ZM2.49612 3H1.5C1.22386 3 1 3.22386 1 3.5C1 3.77614 1.22386 4 1.5 4H2.03222L2.35307 8.81272C2.37825 9.19044 2.39908 9.50302 2.43644 9.75744C2.47533 10.0223 2.53702 10.2644 2.66555 10.49C2.86562 10.8412 3.16739 11.1235 3.53111 11.2998C3.76476 11.413 4.0104 11.4585 4.2773 11.4797C4.53364 11.5 4.84691 11.5 5.22547 11.5H6.77453C7.15309 11.5 7.46636 11.5 7.7227 11.4797C7.9896 11.4585 8.23524 11.413 8.46889 11.2998C8.83261 11.1235 9.13439 10.8412 9.33446 10.49C9.46298 10.2644 9.52467 10.0223 9.56356 9.75744C9.60092 9.503 9.62176 9.1904 9.64693 8.81265L9.96778 4H10.5C10.7761 4 11 3.77614 11 3.5C11 3.22386 10.7761 3 10.5 3H9.50388C9.50096 2.99997 9.49804 2.99997 9.49513 3H2.50487C2.50196 2.99997 2.49904 2.99997 2.49612 3ZM8.96556 4H3.03444L3.34954 8.72639C3.37637 9.12889 3.39492 9.40168 3.42583 9.61217C3.45585 9.81663 3.49252 9.92143 3.53444 9.995C3.63447 10.1706 3.78536 10.3118 3.96722 10.3999C4.04342 10.4368 4.15043 10.4664 4.35643 10.4828C4.56851 10.4996 4.84193 10.5 5.24533 10.5H6.75467C7.15807 10.5 7.43149 10.4996 7.64357 10.4828C7.84957 10.4664 7.95658 10.4368 8.03278 10.3999C8.21464 10.3118 8.36553 10.1706 8.46556 9.995C8.50748 9.92143 8.54415 9.81663 8.57417 9.61217C8.60508 9.40168 8.62363 9.12889 8.65046 8.72639L8.96556 4ZM5 5.25C5.27614 5.25 5.5 5.47386 5.5 5.75V8.25C5.5 8.52614 5.27614 8.75 5 8.75C4.72386 8.75 4.5 8.52614 4.5 8.25V5.75C4.5 5.47386 4.72386 5.25 5 5.25ZM7 5.25C7.27614 5.25 7.5 5.47386 7.5 5.75V8.25C7.5 8.52614 7.27614 8.75 7 8.75C6.72386 8.75 6.5 8.52614 6.5 8.25V5.75C6.5 5.47386 6.72386 5.25 7 5.25Z" fill="white" fill-opacity="0.85"/>
</svg>