<svg width="16" height="16" viewBox="0 0 16 16" fill="none" xmlns="http://www.w3.org/2000/svg">
<g id="folder-plus">
<path id="Icon (Stroke)" fill-rule="evenodd" clip-rule="evenodd" d="M6.72668 2.70304C6.64626 2.67531 6.54181 2.66661 6.01487 2.66661H3.46667C3.0823 2.66661 2.83412 2.66713 2.64523 2.68256C2.46412 2.69736 2.39698 2.72247 2.36401 2.73927C2.23857 2.80318 2.13658 2.90517 2.07267 3.03061C2.05587 3.06358 2.03076 3.13072 2.01596 3.31183C2.00239 3.47793 2.00035 3.68987 2.00005 3.99994H7.58798L7.32669 3.47736C7.09104 3.00606 7.03655 2.91652 6.97577 2.857C6.90518 2.78785 6.82009 2.73526 6.72668 2.70304ZM9.0787 3.99994L8.51926 2.88108C8.5068 2.85615 8.49448 2.83142 8.48225 2.80689C8.30576 2.45273 8.15054 2.14127 7.90873 1.90444C7.69694 1.697 7.44169 1.53925 7.16144 1.44258C6.84147 1.33222 6.49348 1.33268 6.09778 1.3332C6.07037 1.33324 6.04274 1.33327 6.01487 1.33327L3.44098 1.33327C3.08954 1.33326 2.78637 1.33325 2.53665 1.35365C2.27309 1.37519 2.01095 1.42273 1.75869 1.55126C1.38237 1.74301 1.07641 2.04897 0.88466 2.42529C0.756131 2.67755 0.708587 2.93969 0.687053 3.20325C0.66665 3.45297 0.66666 3.75614 0.666672 4.10758L0.666673 10.8275C0.666664 11.3641 0.666657 11.807 0.696135 12.1678C0.726752 12.5426 0.792462 12.887 0.957322 13.2106C1.21298 13.7123 1.62093 14.1203 2.1227 14.376C2.44626 14.5408 2.79072 14.6065 3.16546 14.6371C3.52625 14.6666 3.96915 14.6666 4.50579 14.6666H11.4942C12.0309 14.6666 12.4738 14.6666 12.8346 14.6371C13.2093 14.6065 13.5538 14.5408 13.8773 14.376C14.3791 14.1203 14.787 13.7123 15.0427 13.2106C15.2076 12.887 15.2733 12.5426 15.3039 12.1678C15.3334 11.807 15.3333 11.3641 15.3333 10.8275V7.83906C15.3333 7.30242 15.3334 6.85952 15.3039 6.49872C15.2733 6.12399 15.2076 5.77952 15.0427 5.45597C14.787 4.9542 14.3791 4.54625 13.8773 4.29059C13.5538 4.12573 13.2093 4.06002 12.8346 4.0294C12.4738 3.99992 12.0309 3.99993 11.4942 3.99994L9.0787 3.99994ZM8.65326 5.33327C8.66253 5.33347 8.67182 5.33347 8.68112 5.33327H11.4667C12.0377 5.33327 12.4259 5.33379 12.726 5.35831C13.0183 5.38219 13.1677 5.42547 13.272 5.4786C13.5229 5.60643 13.7269 5.8104 13.8547 6.06129C13.9078 6.16555 13.9511 6.31502 13.975 6.6073C13.9995 6.90736 14 7.29555 14 7.86661V10.7999C14 11.371 13.9995 11.7592 13.975 12.0592C13.9511 12.3515 13.9078 12.501 13.8547 12.6053C13.7269 12.8561 13.5229 13.0601 13.272 13.1879C13.1677 13.2411 13.0183 13.2844 12.726 13.3082C12.4259 13.3328 12.0377 13.3333 11.4667 13.3333H4.53334C3.96229 13.3333 3.57409 13.3328 3.27403 13.3082C2.98175 13.2844 2.83229 13.2411 2.72802 13.1879C2.47714 13.0601 2.27316 12.8561 2.14533 12.6053C2.0922 12.501 2.04892 12.3515 2.02504 12.0592C2.00052 11.7592 2.00001 11.371 2.00001 10.7999V5.33327H8.65326ZM8.00001 6.66661C8.3682 6.66661 8.66667 6.96508 8.66667 7.33327V8.66661H10C10.3682 8.66661 10.6667 8.96508 10.6667 9.33327C10.6667 9.70146 10.3682 9.99994 10 9.99994H8.66667V11.3333C8.66667 11.7015 8.3682 11.9999 8.00001 11.9999C7.63182 11.9999 7.33334 11.7015 7.33334 11.3333V9.99994H6.00001C5.63182 9.99994 5.33334 9.70146 5.33334 9.33327C5.33334 8.96508 5.63182 8.66661 6.00001 8.66661H7.33334V7.33327C7.33334 6.96508 7.63182 6.66661 8.00001 6.66661Z" fill="white" fill-opacity="0.85"/>
</g>
</svg>
