<svg width="34" height="34" viewBox="0 0 34 34" fill="none" xmlns="http://www.w3.org/2000/svg">
<g filter="url(#filter0_d_5208_12554)">
<path fill-rule="evenodd" clip-rule="evenodd" d="M17 10.3333C13.3181 10.3333 10.3333 13.3181 10.3333 17C10.3333 20.6819 13.3181 23.6667 17 23.6667C20.6819 23.6667 23.6667 20.6819 23.6667 17C23.6667 16.0795 24.4129 15.3333 25.3333 15.3333C26.2538 15.3333 27 16.0795 27 17C27 22.5228 22.5228 27 17 27C11.4772 27 7 22.5228 7 17C7 11.4772 11.4772 7 17 7C17.9205 7 18.6667 7.74619 18.6667 8.66667C18.6667 9.58714 17.9205 10.3333 17 10.3333Z" fill="url(#paint0_linear_5208_12554)"/>
</g>
<defs>
<filter id="filter0_d_5208_12554" x="0.333333" y="0.416666" width="33.3333" height="33.3333" filterUnits="userSpaceOnUse" color-interpolation-filters="sRGB">
<feFlood flood-opacity="0" result="BackgroundImageFix"/>
<feColorMatrix in="SourceAlpha" type="matrix" values="0 0 0 0 0 0 0 0 0 0 0 0 0 0 0 0 0 0 127 0" result="hardAlpha"/>
<feOffset dy="0.0833333"/>
<feGaussianBlur stdDeviation="3.33333"/>
<feComposite in2="hardAlpha" operator="out"/>
<feColorMatrix type="matrix" values="0 0 0 0 0.121569 0 0 0 0 0.258824 0 0 0 0 0.4 0 0 0 0.04 0"/>
<feBlend mode="normal" in2="BackgroundImageFix" result="effect1_dropShadow_5208_12554"/>
<feBlend mode="normal" in="SourceGraphic" in2="effect1_dropShadow_5208_12554" result="shape"/>
</filter>
<linearGradient id="paint0_linear_5208_12554" x1="7" y1="11.4444" x2="27.785" y2="14.8637" gradientUnits="userSpaceOnUse">
<stop stop-color="white"/>
<stop offset="0.276391" stop-color="#CDD8E7"/>
<stop offset="0.474888" stop-color="#BAC9DF"/>
<stop offset="0.703159" stop-color="#D4D5D6"/>
<stop offset="1" stop-color="#A0B3CA"/>
</linearGradient>
</defs>
</svg>
