<svg width="16" height="16" viewBox="0 0 16 16" fill="none" xmlns="http://www.w3.org/2000/svg">
<g id="loading-02" clip-path="url(#clip0_6997_4382)">
<path id="Icon (Stroke)" fill-rule="evenodd" clip-rule="evenodd" d="M8 0.666668C8.36819 0.666668 8.66667 0.965145 8.66667 1.33333V4C8.66667 4.36819 8.36819 4.66667 8 4.66667C7.63181 4.66667 7.33334 4.36819 7.33334 4V1.33333C7.33334 0.965145 7.63181 0.666668 8 0.666668ZM2.80965 2.86189C3.07 2.60154 3.49211 2.60154 3.75246 2.86189L5.63808 4.74751C5.89843 5.00786 5.89843 5.42997 5.63808 5.69032C5.37773 5.95067 4.95562 5.95067 4.69527 5.69032L2.80965 3.8047C2.5493 3.54435 2.5493 3.12224 2.80965 2.86189ZM13.1904 2.86189C13.4507 3.12224 13.4507 3.54435 13.1904 3.8047L11.3047 5.69032C11.0444 5.95067 10.6223 5.95067 10.3619 5.69032C10.1016 5.42997 10.1016 5.00786 10.3619 4.74751L12.2476 2.86189C12.5079 2.60154 12.93 2.60154 13.1904 2.86189ZM0.666672 8C0.666672 7.63181 0.965149 7.33333 1.33334 7.33333H4C4.36819 7.33333 4.66667 7.63181 4.66667 8C4.66667 8.36819 4.36819 8.66667 4 8.66667H1.33334C0.965149 8.66667 0.666672 8.36819 0.666672 8ZM11.3333 8C11.3333 7.63181 11.6318 7.33333 12 7.33333H14.6667C15.0349 7.33333 15.3333 7.63181 15.3333 8C15.3333 8.36819 15.0349 8.66667 14.6667 8.66667H12C11.6318 8.66667 11.3333 8.36819 11.3333 8ZM5.63808 10.3619C5.89843 10.6223 5.89843 11.0444 5.63808 11.3047L3.75246 13.1904C3.49211 13.4507 3.07 13.4507 2.80965 13.1904C2.5493 12.93 2.5493 12.5079 2.80965 12.2475L4.69527 10.3619C4.95562 10.1016 5.37773 10.1016 5.63808 10.3619ZM10.3619 10.3619C10.6223 10.1016 11.0444 10.1016 11.3047 10.3619L13.1904 12.2475C13.4507 12.5079 13.4507 12.93 13.1904 13.1904C12.93 13.4507 12.5079 13.4507 12.2476 13.1904L10.3619 11.3047C10.1016 11.0444 10.1016 10.6223 10.3619 10.3619ZM8 11.3333C8.36819 11.3333 8.66667 11.6318 8.66667 12V14.6667C8.66667 15.0349 8.36819 15.3333 8 15.3333C7.63181 15.3333 7.33334 15.0349 7.33334 14.6667V12C7.33334 11.6318 7.63181 11.3333 8 11.3333Z" fill="white" fill-opacity="0.85"/>
</g>
<defs>
<clipPath id="clip0_6997_4382">
<rect width="16" height="16" fill="white"/>
</clipPath>
</defs>
</svg>
