<svg xmlns="http://www.w3.org/2000/svg" width="12" height="13" viewBox="0 0 12 13" fill="none">
  <path fill-rule="evenodd" clip-rule="evenodd" d="M9.5 1C9.77614 1 10 1.22386 10 1.5V3.29289L10.6464 2.64645C10.8417 2.45118 11.1583 2.45118 11.3536 2.64645C11.5488 2.84171 11.5488 3.15829 11.3536 3.35355L9.85355 4.85355C9.65829 5.04882 9.34171 5.04882 9.14645 4.85355L7.64645 3.35355C7.45118 3.15829 7.45118 2.84171 7.64645 2.64645C7.84171 2.45118 8.15829 2.45118 8.35355 2.64645L9 3.29289V1.5C9 1.22386 9.22386 1 9.5 1ZM3.87935 1.5H6.25C6.52614 1.5 6.75 1.72386 6.75 2C6.75 2.27614 6.52614 2.5 6.25 2.5H3.9C3.47171 2.5 3.18056 2.50039 2.95552 2.51878C2.73631 2.53669 2.62421 2.56915 2.54601 2.60899C2.35785 2.70487 2.20487 2.85785 2.10899 3.04601C2.06915 3.12421 2.03669 3.23631 2.01878 3.45552C2.00039 3.68056 2 3.97171 2 4.4V8.6C2 9.02829 2.00039 9.31944 2.01878 9.54448C2.03669 9.76369 2.06915 9.87579 2.10899 9.95399C2.1986 10.1299 2.3381 10.275 2.50959 10.3715C2.55278 10.3038 2.59901 10.2526 2.62943 10.2197C2.70528 10.1376 2.80847 10.0438 2.91521 9.94681L7.16923 6.07951C7.24971 6.00633 7.3293 5.93396 7.40215 5.87718C7.48314 5.81406 7.58353 5.74746 7.71181 5.7058C7.89214 5.64723 8.08541 5.64113 8.26907 5.68822C8.39972 5.72171 8.50411 5.78185 8.58892 5.83974C8.6652 5.89181 8.74919 5.95902 8.83412 6.02698L10.2439 7.15479C10.2548 7.1635 10.2656 7.17213 10.2763 7.18068C10.4334 7.30615 10.5717 7.41656 10.6799 7.55448C10.8147 7.72621 10.9104 7.92528 10.9603 8.1378C11.0004 8.30849 11.0002 8.48544 11 8.68653C11 8.70023 11 8.71405 11 8.72799V8.74565C11 8.82883 11 8.90851 10.9998 8.98481C10.9999 8.98985 11 8.99492 11 9C11 9.02327 11 9.04619 11 9.06879C11.0002 9.46648 11.0004 9.76181 10.9319 10.0176C10.8509 10.3196 10.7022 10.5926 10.5028 10.8197C10.4313 10.9011 10.3533 10.9765 10.2696 11.0453C10.0529 11.2234 9.79771 11.3568 9.51764 11.4319C9.26181 11.5004 8.96648 11.5002 8.56879 11.5C8.54619 11.5 8.52327 11.5 8.5 11.5H8.276C8.26593 11.5 8.25582 11.5 8.24565 11.5H3.87934C3.86728 11.5 3.85528 11.5 3.84334 11.5L3.51569 11.5C3.38779 11.5 3.26365 11.5 3.15955 11.4933C3.05761 11.49 2.96256 11.4851 2.87409 11.4779C2.59304 11.4549 2.33469 11.4057 2.09202 11.282C1.7157 11.0903 1.40973 10.7843 1.21799 10.408C1.09434 10.1653 1.04506 9.90696 1.0221 9.62591C0.999989 9.35532 0.999994 9.02313 1 8.62065V4.37935C0.999994 3.97686 0.999989 3.64468 1.0221 3.37409C1.04506 3.09304 1.09434 2.83469 1.21799 2.59202C1.40973 2.21569 1.7157 1.90973 2.09202 1.71799C2.33469 1.59434 2.59304 1.54506 2.87409 1.5221C3.14468 1.49999 3.47687 1.49999 3.87935 1.5ZM9.79501 10.1066C9.84474 10.0414 9.88665 9.96989 9.91941 9.89331C9.94871 9.82482 9.97285 9.7268 9.98612 9.53783C9.99971 9.34418 10 9.09483 10 8.72799C10 8.46215 9.9969 8.40951 9.98676 8.36635C9.97013 8.29551 9.93824 8.22915 9.89331 8.17191C9.86595 8.13704 9.82677 8.10173 9.61919 7.93566L8.22057 6.81676C8.12006 6.73636 8.06615 6.69366 8.02512 6.66565C8.02365 6.66464 8.02224 6.6637 8.02091 6.6628C8.01963 6.66378 8.01829 6.66481 8.01689 6.66591C7.9777 6.69645 7.92659 6.74247 7.83136 6.82904L3.79333 10.5C3.82791 10.5 3.86346 10.5 3.9 10.5H8.22799C8.59483 10.5 8.84418 10.4997 9.03782 10.4861C9.2268 10.4728 9.32482 10.4487 9.3933 10.4194C9.47115 10.3861 9.54379 10.3434 9.60982 10.2925C9.67943 10.239 9.74172 10.1764 9.79501 10.1066ZM4.25 4.25C3.97386 4.25 3.75 4.47386 3.75 4.75C3.75 5.02614 3.97386 5.25 4.25 5.25C4.52614 5.25 4.75 5.02614 4.75 4.75C4.75 4.47386 4.52614 4.25 4.25 4.25ZM2.75 4.75C2.75 3.92157 3.42157 3.25 4.25 3.25C5.07843 3.25 5.75 3.92157 5.75 4.75C5.75 5.57843 5.07843 6.25 4.25 6.25C3.42157 6.25 2.75 5.57843 2.75 4.75Z" fill="white" fill-opacity="0.85"/>
</svg>
