<svg width="200" height="200" viewBox="0 0 200 200" fill="none" xmlns="http://www.w3.org/2000/svg">
<g id="SVG" clip-path="url(#clip0_3449_2461)">
<path id="Vector" fill-rule="evenodd" clip-rule="evenodd" d="M64.0905 64.8647V8.56348L5.75781 78.9388H50.0164V99.2314H64.0905V78.9388H72.9075V64.8647H64.0905ZM174.268 64.8647V8.56348L124.111 69.0753C124.809 65.3379 125.18 61.3886 125.18 57.3165C125.18 46.3194 122.472 36.2184 117.934 28.7675C113.428 21.3699 106.797 16.1449 98.9255 16.1449C91.0549 16.1449 84.4226 21.3699 79.9169 28.7675C75.3787 36.2184 72.67 46.3194 72.67 57.3165C72.67 68.3135 75.3787 78.4145 79.9169 85.8654C84.4226 93.2631 91.0549 98.488 98.9255 98.488C106.797 98.488 113.428 93.2631 117.934 85.8654C119.219 83.7557 120.357 81.4336 121.329 78.9388H160.194V99.2314H174.268V78.9388H183.085V64.8647H174.268ZM35.7038 64.8647L50.0164 47.5973V64.8647H35.7038ZM160.194 64.8647H145.881L160.194 47.5973V64.8647ZM111.106 57.3165C111.106 66.1634 108.9 73.6414 105.914 78.5443C102.826 83.6161 100.036 84.4139 98.9255 84.4139C97.8145 84.4139 95.026 83.6161 91.9369 78.5443C88.9506 73.6414 86.7441 66.1634 86.7441 57.3165C86.7441 48.4696 88.9506 40.9916 91.9369 36.0886C95.026 31.0169 97.8145 30.219 98.9255 30.219C100.036 30.219 102.826 31.0169 105.914 36.0886C108.9 40.9916 111.106 48.4696 111.106 57.3165Z" fill="#47FFF2" fill-opacity="0.2"/>
<path id="Vector_2" d="M178.338 186.569C176.485 188.763 171.674 187.59 170.205 186.806C170.084 186.741 169.972 186.668 169.868 186.588C167.934 186.812 154.933 186.09 154.751 186.133C148.628 187.557 140.689 187.163 139.549 187.124C138.19 187.077 135.015 185.8 133.797 182.053C132.603 178.378 133.795 174.929 135.956 168.678L136.087 168.302C135.612 169.244 135.134 170.186 134.655 171.126C127.292 185.556 123.609 190.829 117.229 191.274C110.849 191.718 82.8914 191.182 76.1406 190.49C69.3898 189.799 66.7224 188.811 66.7883 187.658C66.841 186.736 69.7723 185.463 71.2314 184.942C65.3443 183.369 51.0658 178.97 41.0484 173.962C28.5267 167.701 15.9115 158.169 19.1354 145.04C22.3592 131.911 34.8946 128.241 44.7264 127.663C47.4741 127.501 49.8699 127.559 51.8887 127.733C55.6488 128.058 58.1008 128.788 59.082 129.259C57.9737 122.886 55.7573 109.922 55.7573 109.049C55.7573 107.957 52.7362 98.3843 52.1192 94.6958C52.028 94.1505 51.0044 89.1026 55.7573 89.6774C60.5103 90.2522 68.1525 107.879 71.6427 118.383C77.3544 113.416 82.4164 108.972 82.7923 108.513C83.6258 107.494 92.1512 98.7577 97.6638 94.6651C103.176 90.5725 114.37 83.7314 130.659 82.9132C146.949 82.095 165.148 85.2745 171.55 94.8215C177.952 104.368 177.652 129.264 178.002 143.532C178.351 157.8 178.843 171.173 180.113 173.289C181.383 175.406 186.555 178.31 189.882 180.427C193.209 182.544 194.327 184.328 194.236 184.63C194.145 184.933 193.843 185.205 192.003 185.71C192.334 186.183 192.121 187.093 189.882 187.319C185.173 187.793 181.236 186.569 178.338 186.569Z" fill="#C5C5C5"/>
<path id="Vector_3" d="M192.003 185.71C190.391 183.403 182.3 180.369 176.959 179.958C171.618 179.547 170.514 180.49 169.555 181.811C168.559 183.182 168.513 185.535 169.868 186.588M192.003 185.71C192.334 186.183 192.121 187.093 189.882 187.319C185.173 187.793 181.236 186.569 178.338 186.569C176.485 188.763 171.674 187.59 170.205 186.806C170.084 186.741 169.972 186.668 169.868 186.588M192.003 185.71C193.843 185.205 194.145 184.933 194.236 184.63C194.327 184.328 193.209 182.544 189.882 180.427C186.555 178.31 181.383 175.406 180.113 173.289C178.843 171.173 178.351 157.8 178.002 143.532C177.652 129.264 177.952 104.368 171.55 94.8215C165.148 85.2745 146.949 82.095 130.659 82.9132C114.37 83.7314 103.176 90.5725 97.6638 94.6651C92.1512 98.7577 83.6258 107.494 82.7923 108.513C82.4164 108.972 77.3544 113.416 71.6427 118.383C68.1525 107.879 60.5103 90.2522 55.7573 89.6774C51.0044 89.1026 52.028 94.1505 52.1192 94.6958C52.7362 98.3843 55.7573 107.957 55.7573 109.049C55.7573 109.922 57.9737 122.886 59.082 129.259C58.1008 128.788 55.6488 128.058 51.8887 127.733M169.868 186.588C167.934 186.812 154.933 186.09 154.751 186.133M51.8887 127.733C49.8699 127.559 47.4741 127.501 44.7264 127.663C34.8946 128.241 22.3592 131.911 19.1354 145.04C15.9115 158.169 28.5267 167.701 41.0484 173.962C51.0658 178.97 65.3443 183.369 71.2314 184.942M51.8887 127.733C51.8887 127.733 53.1262 134.855 55.7573 139.148C57.801 142.483 60.0252 145.062 62.3706 146.947M71.2314 184.942C69.7723 185.463 66.841 186.736 66.7883 187.658C66.7224 188.811 69.3898 189.799 76.1406 190.49C82.8915 191.182 110.849 191.718 117.229 191.274C123.609 190.829 127.292 185.556 134.655 171.126C135.134 170.186 135.612 169.244 136.087 168.302M71.2314 184.942C77.1174 182.45 83.5833 178.618 87.7164 174.829C92.7861 170.18 97.2669 161.372 97.679 160.547C97.7618 160.382 98.0459 159.839 98.5016 158.989M136.087 168.302C142.897 154.789 149 141.435 148.95 137.438C148.897 133.163 143.77 141.658 142.3 148.469C140.717 155.805 141.456 160.133 141.931 163.141M136.087 168.302C133.844 174.792 132.579 178.305 133.797 182.053C135.015 185.8 138.19 187.077 139.549 187.124C140.689 187.163 148.628 187.557 154.751 186.133M98.5016 158.989C91.6327 155.892 80.6305 152.186 75.988 150.719M98.5016 158.989C99.8479 156.477 102.692 151.288 106.262 145.25M154.751 186.133C155.926 185.86 157.034 185.52 158.015 185.098C164.105 182.474 168.935 176.546 171.55 160.837C174.165 145.128 173.043 118.479 161.262 110.064C149.48 101.648 139.943 103.986 127.226 115.861C121.892 120.842 115.369 130.384 109.808 139.381M109.808 139.381C109.008 135.734 108.366 132.229 107.872 128.963M109.808 139.381C108.57 141.383 107.38 143.358 106.262 145.25M107.872 128.963C106.993 123.151 106.583 118.097 106.583 114.356M107.872 128.963C105.556 131.421 100.098 136.112 94.2083 140.506M106.262 145.25C103.942 144.315 97.2596 141.698 94.2083 140.506M94.2083 140.506C87.9146 145.202 81.1281 149.558 77.1556 150.486C76.7663 150.577 76.377 150.655 75.988 150.719M62.3706 146.947C66.6284 150.369 71.2858 151.504 75.988 150.719M62.3706 146.947C59.082 146.104 51.0847 144.564 49.5126 144.536" stroke="#17171A"/>
<path id="Vector_4" d="M77.7422 73.3135L101.474 116.518L99.7784 119.01L77.0359 128.559L52.457 84.0792L74.352 73.3135H77.7422Z" fill="#6B7074"/>
<path id="Vector_5" d="M74.352 73.3135H77.7422L101.474 116.518L99.7784 119.01M74.352 73.3135L52.457 84.0792L77.0359 128.559L99.7784 119.01M74.352 73.3135L99.7784 119.01" stroke="#17171A"/>
<path id="Vector_6" d="M83.8934 116.955C84.8626 118.915 78.9873 121.522 75.5744 123.13C74.2474 123.756 73.4779 124.108 72.8739 124.338C73.7823 127.625 74.123 132.467 68.3956 134.153C62.6682 135.84 53.3318 133.133 50.3897 124.542C47.4475 115.951 50.4106 104.576 59.4515 97.5135C65.1159 93.0888 74.4636 91.744 78.867 93.4636C81.0213 94.2783 80.2477 96.1702 78.3043 97.895C76.9545 99.0929 75.3837 100.329 73.783 101.482C74.1776 101.468 74.5858 101.463 75.008 101.471C79.1351 101.544 82.271 102.592 82.4257 104.622C82.4971 105.558 81.624 106.746 80.478 108.066C79.8581 108.781 79.1999 109.405 78.5322 109.949C81.3277 109.726 84.4692 110.996 81.4359 114.145C81.0157 114.581 80.5809 114.98 80.1407 115.343C81.8684 115.374 83.3779 115.913 83.8934 116.955Z" fill="#C5C5C5"/>
<path id="Vector_7" d="M69.7294 125.092C71.3837 124.756 71.9244 124.699 72.8739 124.338M72.8739 124.338C73.4779 124.108 74.2474 123.756 75.5744 123.13C78.9873 121.522 84.8626 118.915 83.8934 116.955C83.0272 115.204 79.354 114.873 76.5552 115.991C73.7201 117.123 72.979 118.234 73.0967 118.548C73.2144 118.861 77.8522 117.865 81.4359 114.145C84.8358 110.615 80.478 109.446 77.545 110.095C75.2838 110.595 71.1374 112.155 71.3788 112.939C71.5357 113.449 76.713 112.404 80.478 108.066C81.624 106.746 82.4971 105.558 82.4257 104.622C82.271 102.592 79.1351 101.544 75.008 101.471C66.1816 101.314 63.4519 106.255 63.8472 106.579C64.9532 107.487 73.2057 102.421 78.3043 97.895C80.2477 96.1702 81.0213 94.2783 78.867 93.4636C74.4636 91.744 65.1159 93.0888 59.4515 97.5135C50.4106 104.576 47.4475 115.951 50.3897 124.542C53.3318 133.133 62.6682 135.84 68.3956 134.153C74.123 132.467 73.7823 127.625 72.8739 124.338Z" stroke="#17171A"/>
<path id="Vector_8" fill-rule="evenodd" clip-rule="evenodd" d="M106.483 120.146C106.284 121.712 105.956 124.134 105.277 126.663C104.597 129.193 103.569 131.819 101.975 133.799L102.173 133.989L107.848 129.02L106.756 120.147L106.483 120.146ZM137.57 165.474L137.32 165.361L126.023 186.64H137.944L137.512 186.384C134.005 184.305 133.44 180.591 134.053 176.61C134.576 173.21 135.953 169.657 137.043 166.845C137.229 166.365 137.407 165.907 137.57 165.474ZM51.7594 127.579L51.5195 127.696C51.8175 129.16 52.5654 132.497 53.1668 134.086L53.1855 134.135L53.2324 134.16C54.8622 135 57.6391 136.007 60.6862 136.301C63.7331 136.595 67.0666 136.177 69.7894 134.148L69.658 133.908C66.5239 135.103 58.521 135.537 51.7594 127.579Z" fill="#17171A"/>
<path id="Vector_9" fill-rule="evenodd" clip-rule="evenodd" d="M133.546 82.8258L133.561 82.667L133.402 82.6751C131.583 82.7674 127.56 83.056 123.527 83.6266C121.511 83.9118 119.491 84.2679 117.742 84.7059C115.997 85.143 114.507 85.6649 113.564 86.2877L113.504 86.3274L113.502 86.3994C113.46 88.1992 113.626 90.0856 114.147 91.7521C114.669 93.4188 115.549 94.8752 116.943 95.7977C119.764 97.6641 123.636 97.4244 126.934 95.2219C130.236 93.0172 132.969 88.8454 133.546 82.8258Z" fill="#17171A"/>
<path id="Vector_10" d="M126.661 84.7315C126.661 90.1893 122.31 94.5998 116.96 94.5998C111.609 94.5998 107.258 90.1893 107.258 84.7315C107.258 79.2738 111.609 74.8633 116.96 74.8633C122.31 74.8633 126.661 79.2738 126.661 84.7315Z" fill="#C5C5C5" stroke="#17171A"/>
<path id="Vector_11" fill-rule="evenodd" clip-rule="evenodd" d="M109.413 70.5964C110.065 70.8454 110.659 71.0722 111.305 70.8567C111.835 70.6801 112.138 70.1638 112.492 69.5619C113.241 68.2861 114.217 66.6256 118.054 67C121.91 67.3762 122.644 69.1734 123.157 70.4306C123.36 70.9261 123.528 71.3378 123.839 71.5454C124.319 71.8656 124.678 71.8805 125.101 71.898C125.648 71.9207 126.303 71.9479 127.469 72.6474C128.884 73.4963 129.957 78.2987 127.705 82.5826L127.957 83.0121C127.51 85.1643 124.911 87.3779 124.911 87.1541C124.911 84.1085 124.911 82.403 121.987 79.7229C117.726 81.3198 111.101 80.8493 108.052 79.8618L108.051 79.8627C104.044 78.5786 102.065 73.048 105.52 70.8567C107.239 69.7662 108.397 70.2084 109.413 70.5964Z" fill="#17171A"/>
<path id="Vector_12" fill-rule="evenodd" clip-rule="evenodd" d="M116.693 81.6081C116.587 81.406 116.337 81.3281 116.135 81.4341C115.933 81.5401 115.855 81.7899 115.962 81.992C116.168 82.3853 116.428 82.7391 116.855 82.9511C117.274 83.1591 117.789 83.1979 118.439 83.1165C118.666 83.0881 118.826 82.8816 118.798 82.6551C118.769 82.4286 118.563 82.268 118.336 82.2964C117.757 82.369 117.431 82.3145 117.222 82.2107C117.02 82.1109 116.865 81.9345 116.693 81.6081ZM110.132 85.8176C110.714 85.7883 111.163 85.2847 111.134 84.6928C111.105 84.1009 110.609 83.6449 110.027 83.6742C109.445 83.7035 108.996 84.207 109.025 84.7989C109.054 85.3908 109.549 85.8469 110.132 85.8176ZM116.953 86.5486C117.536 86.5193 117.985 86.0157 117.956 85.4238C117.927 84.8319 117.431 84.3758 116.849 84.4051C116.267 84.4344 115.818 84.938 115.847 85.5299C115.876 86.1217 116.371 86.5779 116.953 86.5486Z" fill="#17171A"/>
<path id="Vector_13" d="M127.421 88.488C128.79 88.488 129.9 87.3779 129.9 86.0086C129.9 84.6393 128.79 83.5293 127.421 83.5293C126.051 83.5293 124.941 84.6393 124.941 86.0086C124.941 87.3779 126.051 88.488 127.421 88.488Z" fill="#C5C5C5" stroke="#17171A"/>
<path id="Vector_14" d="M71.7479 79.0826C73.572 80.9067 76.5295 80.9067 78.3537 79.0826C80.1778 77.2584 80.1778 74.3009 78.3537 72.4767C76.5295 70.6526 73.572 70.6526 71.7479 72.4767C69.9237 74.3009 69.9237 77.2584 71.7479 79.0826Z" fill="#47FFF2" stroke="black" stroke-width="3"/>
<path id="Vector_15" fill-rule="evenodd" clip-rule="evenodd" d="M77.9 72.9731C77.467 72.5402 76.7651 72.5402 76.3321 72.9731L75.0674 74.2378L73.7597 72.9302C73.3268 72.4972 72.6248 72.4972 72.1919 72.9302C71.759 73.3631 71.759 74.0651 72.1919 74.498L73.4996 75.8057L72.1919 77.1133C71.759 77.5463 71.759 78.2482 72.1919 78.6812C72.6249 79.1141 73.3268 79.1141 73.7598 78.6812L75.0674 77.3735L76.3321 78.6382C76.765 79.0712 77.467 79.0712 77.8999 78.6382C78.3329 78.2053 78.3329 77.5033 77.8999 77.0704L76.6352 75.8057L77.9 74.541C78.3329 74.108 78.3329 73.4061 77.9 72.9731Z" fill="#C5C5C5"/>
<path id="Vector_16" fill-rule="evenodd" clip-rule="evenodd" d="M99.411 49.1131C94.5265 43.932 87.9251 40.3337 80.4094 39.2722C79.1468 39.0939 78.0609 40.0604 77.9891 41.2942C77.9195 42.49 78.8099 43.4914 79.9568 43.6603C86.3206 44.5978 91.9161 47.6422 96.0885 52.0151C96.9218 52.8885 98.3265 53.007 99.2555 52.1723C100.138 51.3799 100.25 50.0024 99.411 49.1131ZM63.6132 40.5867C55.5671 43.1744 48.8108 48.8442 44.8651 56.3166C44.2838 57.4175 44.7881 58.7369 45.8816 59.2472C46.9943 59.7663 48.2827 59.2714 48.8432 58.2253C52.2361 51.8929 57.9746 47.0773 64.8017 44.8359C65.926 44.4668 66.637 43.2896 66.325 42.1059C66.0165 40.9356 64.802 40.2044 63.6132 40.5867ZM91.3628 56.3696C88.3377 53.2325 84.3537 50.9948 79.8262 50.1511C78.5404 49.9115 77.4298 50.9014 77.3574 52.1451C77.2885 53.3298 78.1584 54.3092 79.2627 54.5319C82.6735 55.2194 85.6854 56.9045 88.0139 59.2493C88.8588 60.1002 90.2698 60.2458 91.2121 59.3992C92.0811 58.6184 92.2118 57.2501 91.3628 56.3696ZM66.7182 51.7192C61.7795 53.459 57.619 56.9581 55.0583 61.5254C54.4425 62.6238 54.9616 63.9477 56.0496 64.4553C57.1673 64.9769 58.4432 64.4712 59.0296 63.4607C61.0335 60.0072 64.1983 57.3455 67.9442 55.9633C69.0354 55.5607 69.7516 54.3991 69.4387 53.2121C69.1312 52.0457 67.9117 51.2987 66.7182 51.7192ZM83.3487 63.671C82.2334 62.5794 80.8761 61.7253 79.3533 61.2007C77.9983 60.7338 76.7944 61.8184 76.7199 63.0979C76.6536 64.2363 77.449 65.1447 78.3701 65.5449C78.9247 65.7858 79.436 66.1034 79.8919 66.4835C80.7783 67.2225 82.2193 67.479 83.2081 66.5905C84.0308 65.8514 84.2169 64.5207 83.3487 63.671ZM69.0745 62.9116C67.2463 63.739 65.6798 65.0674 64.5647 66.737C63.8406 67.8212 64.4087 69.1614 65.4766 69.6597C66.6098 70.1885 67.8472 69.6403 68.5233 68.7821C69.0488 68.1152 69.7045 67.5592 70.4481 67.1499C71.3959 66.6282 72.1344 65.5164 71.8192 64.3205C71.5156 63.1686 70.2766 62.3675 69.0745 62.9116Z" fill="#47FFF2"/>
</g>
<defs>
<clipPath id="clip0_3449_2461">
<rect width="200" height="200" fill="white"/>
</clipPath>
</defs>
</svg>
