<svg width="200" height="200" viewBox="0 0 200 200" fill="none" xmlns="http://www.w3.org/2000/svg">
<g id="Frame">
<path id="Vector" fill-rule="evenodd" clip-rule="evenodd" d="M123.171 114.655L122.967 114.478L88.3613 141.585L88.8262 141.543C98.8618 140.631 105.544 141.164 107.62 141.541L107.716 141.559L123.171 114.655Z" fill="#1C1F23"/>
<path id="Vector_2" d="M123.339 73.8711H67.7061V113.671H123.339V73.8711Z" fill="#C6CACD" stroke="#1C1F23"/>
<path id="Vector_3" d="M49.9683 136.507L67.6729 114.062H123.112L105.408 136.507H49.9683Z" fill="#888D92" stroke="#1C1F23"/>
<path id="Vector_4" fill-rule="evenodd" clip-rule="evenodd" d="M101.667 78.5674H75.749V100.017H94.5175V106.273H109.115V92.5692H101.667V78.5674Z" fill="#888D92"/>
<path id="Vector_5" fill-rule="evenodd" clip-rule="evenodd" d="M76.6588 79.427H100.924V92.5689H94.5178V99.2238H76.6588V79.427ZM94.5178 100.05H75.7407V78.6006H101.75V92.5689H109.115V106.273H94.5178V100.05ZM101.75 93.3953H108.289V105.446H95.3442V100.05H101.75V93.3953ZM100.924 93.3953V99.2238H95.3442V93.3953H100.924Z" fill="#C6CACD"/>
<path id="Vector_6" d="M43.2899 174.887H33.5103C37.6976 173.674 37.5507 162.903 36.9538 157.669C37.8353 163.399 41.5452 171.535 43.2899 174.887Z" fill="#1C1F23" stroke="#1C1F23"/>
<path id="Vector_7" d="M75.9343 40.589C75.9343 58.6942 61.2571 73.3714 43.1519 73.3714C25.0467 73.3714 10.3696 58.6942 10.3696 40.589C10.3696 22.4838 25.0467 7.80664 43.1519 7.80664C61.2571 7.80664 75.9343 22.4838 75.9343 40.589Z" fill="#47FFF2" fill-opacity="0.2"/>
<path id="Vector_8" fill-rule="evenodd" clip-rule="evenodd" d="M47.5595 25.1167C47.5595 22.6824 45.5861 20.709 43.1518 20.709C40.7175 20.709 38.7441 22.6824 38.7441 25.1167V36.1816H27.6792C25.2449 36.1816 23.2715 38.155 23.2715 40.5893C23.2715 43.0236 25.2449 44.997 27.6792 44.997H38.7441V56.0619C38.7441 58.4962 40.7175 60.4696 43.1518 60.4696C45.5861 60.4696 47.5595 58.4962 47.5595 56.0619V44.997H58.6243C61.0587 44.997 63.0321 43.0236 63.0321 40.5893C63.0321 38.155 61.0587 36.1816 58.6243 36.1816H47.5595V25.1167Z" fill="#47FFF2"/>
<path id="Vector_9" d="M63.8235 83.3281C59.2993 81.4951 50.2896 75.3715 50.4443 65.541" stroke="#1C1F23"/>
<path id="Vector_10" d="M52.5875 110.23C55.4741 110.324 59.0951 111.144 62.5611 115.113C65.043 117.955 67.2268 122.321 70.0129 129.61C70.8414 122.952 73.0863 116.354 74.2836 113.288C75.481 110.222 79.5695 103.038 83.6287 102.775C87.6879 102.512 88.0967 106.338 86.1985 107.418C84.3003 108.499 83.1906 108.382 81.4092 110.835C79.6279 113.288 78.4517 115.777 79.3908 122.166C80.1165 119.228 81.1561 117.583 82.1661 116.461C83.1761 115.339 90.9642 108.404 96.5303 108.112C100.387 107.91 101.722 108.817 101.313 109.842C102.763 109.45 104.18 109.28 105.389 109.516C107.473 109.923 108.166 111.413 107.216 112.695C109.406 112.531 111.496 112.92 112.578 114.531C112.907 115.02 112.82 116.168 112.021 117.116C111.247 118.034 109.774 118.755 109.189 119.065C107.999 119.693 103.255 122.78 101.841 127.169C100.427 131.558 99.1098 134.631 105.304 147.994C110.01 158.147 110.937 169.317 107.169 177.599C116.131 177.317 124.055 175.448 129.189 172.552C133.58 170.075 137.464 167.055 139.578 162.043C137.251 142.389 137.315 104.787 140.493 104.622C144.985 104.388 142.222 152.627 140.493 159.323C140.243 160.291 139.936 161.196 139.578 162.043C140.249 167.71 141.119 171.885 142.17 173.24C143.868 175.429 182.608 177.997 192.377 174.83C193.654 174.416 194.437 173.903 194.576 173.279C195.587 168.737 179.782 165.016 173.697 159.323C169.51 155.405 170.929 126.897 168.734 108.865C166.539 90.8337 160.821 72.3928 143.471 68.1573C129.848 64.8314 118.485 69.8928 113.325 73.7977H85.6167C88.3315 68.2032 96.076 57.7434 112.021 54.6169C131.282 50.8404 148.198 59.8096 158.977 72.0834C163.931 77.3252 166.725 80.7923 168.206 80.7923C169.687 80.7923 177.431 76.1113 185.814 75.5675C188.309 75.4135 188.266 78.2116 186.997 82.3741C186.477 84.0776 185.906 85.4376 184.914 87.4395C182.467 92.379 177.076 101.741 168.734 108.865C170.929 126.897 169.51 155.405 173.697 159.323C179.782 165.016 195.587 168.737 194.576 173.279C194.437 173.903 193.654 174.416 192.377 174.83C182.608 177.997 143.868 175.429 142.17 173.24C141.119 171.885 140.249 167.71 139.578 162.043C137.464 167.055 133.58 170.075 129.189 172.552C124.055 175.448 116.131 177.317 107.169 177.599C105.977 180.217 104.316 182.547 102.156 184.465C93.1655 192.449 73.1718 196.14 54.3858 186.143C44.8247 181.055 39.6677 168.523 36.8881 155.973L36.8932 156.026C37.7389 164.954 38.2316 170.155 34.7066 174.549C27.6355 175.168 21.319 174.549 15.1313 172.634C9.90793 171.017 2.21849 164.318 6.75439 150.018C11.2903 135.719 34.7324 117.24 36.8881 115.807C39.0438 114.374 44.8456 110.23 52.5875 110.23Z" fill="#C6CACD"/>
<path id="Vector_11" d="M70.0129 129.61C68.2344 140.315 70.1453 157.678 73.3401 156.899C74.3429 156.654 74.9144 155.317 75.0122 153.003C82.1661 153.336 102.782 160.986 109.48 164.796C109.634 169.418 108.892 173.81 107.169 177.598C105.977 180.217 104.316 182.547 102.156 184.465C93.1655 192.449 73.1718 196.139 54.3858 186.142C44.8247 181.054 39.6677 168.523 36.8881 155.972L36.8932 156.026C37.7389 164.953 38.2316 170.155 34.7066 174.548C27.6355 175.167 21.319 174.548 15.1313 172.633C9.90793 171.016 2.21849 164.317 6.75439 150.018C11.2903 135.718 34.7324 117.24 36.8881 115.806C39.0438 114.373 44.8456 110.229 52.5875 110.229C55.4741 110.324 59.0951 111.144 62.5611 115.113C65.043 117.955 67.2268 122.321 70.0129 129.61Z" fill="#888D92"/>
<path id="Vector_12" d="M105.304 147.994C110.01 158.147 110.937 169.317 107.169 177.599C116.131 177.317 124.055 175.448 129.189 172.552C133.58 170.075 137.464 167.055 139.578 162.043C137.251 142.389 137.315 104.787 140.493 104.622C144.985 104.388 142.222 152.627 140.493 159.323C140.243 160.291 139.936 161.196 139.578 162.043C140.249 167.71 141.119 171.885 142.17 173.24C143.868 175.429 182.608 177.997 192.377 174.83C193.654 174.416 194.437 173.903 194.576 173.279C195.587 168.737 179.782 165.016 173.697 159.323C169.51 155.405 170.929 126.897 168.734 108.865C166.539 90.8336 160.821 72.3927 143.471 68.1572C129.848 64.8313 118.485 69.8927 113.325 73.7976H123.5V113.703L107.5 141.5L102.542 141.429C103.227 143.301 104.131 145.463 105.304 147.994Z" fill="#C6CACD"/>
<path id="Vector_13" d="M70.0129 129.61C75.5169 146.124 76.2725 156.184 73.3401 156.9C70.1453 157.679 68.2344 140.315 70.0129 129.61ZM70.0129 129.61C67.2268 122.321 65.043 117.955 62.5611 115.113C59.0951 111.144 55.4741 110.324 52.5875 110.23C44.8456 110.23 39.0439 114.374 36.8881 115.807C34.7324 117.24 11.2903 135.719 6.75439 150.018C2.21849 164.318 9.90793 171.017 15.1313 172.634C21.319 174.549 27.6355 175.168 34.7066 174.549C38.2386 170.146 37.7369 164.933 36.8881 155.973M70.0129 129.61C70.8414 122.952 73.0863 116.354 74.2836 113.288C75.481 110.222 79.5695 103.038 83.6287 102.775C87.6879 102.512 88.0967 106.338 86.1985 107.418C84.3003 108.499 83.1906 108.382 81.4092 110.835C79.6279 113.288 78.4517 115.777 79.3908 122.166C80.1165 119.228 81.1561 117.583 82.1661 116.461C83.1761 115.339 90.9642 108.404 96.5303 108.112C102.097 107.82 102.411 109.84 99.8072 111.187C97.2037 112.533 92.1939 113.79 85.4654 123.351C85.4654 123.351 84.8687 118.108 95.4755 112.309C98.3462 110.739 102.474 108.946 105.389 109.516C108.535 110.131 108.51 113.21 104.453 114.324C103.242 114.656 101.081 115.792 99.364 117.24C96.5097 119.647 94.1005 122.809 93.582 123.776C94.0085 120.252 97.8901 115.264 102.542 113.703C105.752 112.625 110.693 111.725 112.578 114.531C112.907 115.02 112.82 116.168 112.021 117.116C111.247 118.034 109.774 118.755 109.189 119.065C107.999 119.693 103.255 122.78 101.841 127.169C100.695 130.727 99.6121 133.42 102.542 141.429M36.8881 155.973C34.2063 143.864 33.7378 131.737 33.6623 126.263M36.8881 155.973C39.6677 168.523 44.8247 181.055 54.3858 186.143C73.1718 196.14 93.1655 192.449 102.156 184.465C104.316 182.547 105.977 180.217 107.169 177.599M102.542 141.429C103.227 143.301 104.131 145.463 105.304 147.994C110.01 158.147 110.937 169.317 107.169 177.599M102.542 141.429L107.5 141.5L123.5 113.703V73.7977H113.325M107.169 177.599C116.131 177.317 124.055 175.448 129.189 172.552C133.58 170.075 137.464 167.055 139.578 162.043M139.578 162.043C140.249 167.71 141.119 171.885 142.17 173.24C143.868 175.429 182.608 177.997 192.377 174.83M139.578 162.043C137.251 142.389 137.315 104.787 140.493 104.622C144.985 104.388 142.222 152.627 140.493 159.323C140.243 160.291 139.936 161.196 139.578 162.043ZM168.734 108.865C170.929 126.897 169.51 155.405 173.697 159.323C179.782 165.016 195.587 168.737 194.576 173.279C194.437 173.903 193.654 174.416 192.377 174.83M168.734 108.865C166.539 90.8337 160.821 72.3928 143.471 68.1573C129.848 64.8314 118.485 69.8928 113.325 73.7977M168.734 108.865C177.076 101.741 182.467 92.379 184.914 87.4395C185.906 85.4376 186.477 84.0776 186.997 82.3741M192.377 174.83C191.954 171.915 191.129 171.268 187.574 170.227M113.325 73.7977H85.6167C88.3315 68.2032 96.076 57.7434 112.021 54.6169C131.282 50.8404 148.198 59.8096 158.977 72.0834C163.931 77.3252 166.725 80.7923 168.206 80.7923C169.687 80.7923 177.431 76.1113 185.814 75.5675C188.309 75.4135 188.266 78.2116 186.997 82.3741M186.997 82.3741C187.011 81.3634 187.15 80.3011 186.566 79.6344C184.797 77.6119 180.682 77.5642 180.111 81.6127" stroke="#1C1F23"/>
<path id="Vector_14" d="M58.1244 104.222C58.1244 110.068 53.4485 114.796 47.6941 114.796C41.9397 114.796 37.2637 110.068 37.2637 104.222C37.2637 98.3755 41.9397 93.6475 47.6941 93.6475C53.4485 93.6475 58.1244 98.3755 58.1244 104.222Z" fill="#C6CACD" stroke="#1C1F23"/>
<path id="Vector_15" fill-rule="evenodd" clip-rule="evenodd" d="M49.015 93.7897C55.1928 94.3756 53.5748 106.093 49.6034 111.367C46.723 115.191 48.4321 118.499 50.5103 122.521C50.9339 123.341 51.3729 124.191 51.7914 125.08C53.7509 127.949 54.8854 131.351 54.8854 134.999C54.8854 145.246 45.9351 153.552 34.8943 153.552C23.8536 153.552 14.9033 145.246 14.9033 134.999C14.9033 127.111 20.2077 120.373 27.6867 117.689C34.9901 113.65 37.2702 109.614 37.542 102.578C37.7773 96.4849 42.8372 93.2038 49.015 93.7897Z" fill="#1C1F23"/>
<g id="Mask group">
<mask id="mask0_3449_7876" style="mask-type:luminance" maskUnits="userSpaceOnUse" x="14" y="93" width="41" height="61">
<g id="Group">
<path id="Vector_16" fill-rule="evenodd" clip-rule="evenodd" d="M49.015 93.7897C55.1928 94.3756 53.5748 106.093 49.6034 111.367C46.723 115.191 48.4321 118.499 50.5103 122.521C50.9339 123.341 51.3729 124.191 51.7914 125.08C53.7509 127.949 54.8854 131.351 54.8854 134.999C54.8854 145.246 45.9351 153.552 34.8943 153.552C23.8536 153.552 14.9033 145.246 14.9033 134.999C14.9033 127.111 20.2077 120.373 27.6867 117.689C34.9901 113.65 37.2702 109.614 37.542 102.578C37.7773 96.4849 42.8372 93.2038 49.015 93.7897Z" fill="white"/>
</g>
</mask>
<g mask="url(#mask0_3449_7876)">
<path id="Vector_17" d="M51.7914 125.08L49.0768 126.357L49.1789 126.574L49.3141 126.772L51.7914 125.08ZM27.6867 117.689L28.7001 120.513L28.9272 120.431L29.1385 120.314L27.6867 117.689ZM51.9998 113.171C54.4042 109.979 55.966 105.116 56.1133 100.926C56.1872 98.8225 55.9192 96.5588 54.935 94.6606C53.8727 92.6116 51.9841 91.0575 49.2983 90.8028L48.7318 96.776C49.1349 96.8142 49.3607 96.9446 49.6084 97.4223C49.9342 98.0507 50.1718 99.1559 50.117 100.715C50.0069 103.848 48.774 107.481 47.207 109.562L51.9998 113.171ZM53.1756 121.144C52.0774 119.018 51.3802 117.611 51.1495 116.336C50.968 115.333 51.0737 114.401 51.9998 113.171L47.207 109.562C45.2527 112.157 44.7727 114.791 45.2453 117.404C45.6685 119.744 46.865 122.001 47.8451 123.898L53.1756 121.144ZM54.506 123.803C54.06 122.855 53.5957 121.957 53.1756 121.144L47.8451 123.898C48.2722 124.725 48.6857 125.526 49.0768 126.357L54.506 123.803ZM49.3141 126.772C50.9516 129.17 51.8854 131.987 51.8854 134.999H57.8854C57.8854 130.715 56.5502 126.728 54.2687 123.388L49.3141 126.772ZM51.8854 134.999C51.8854 143.382 44.4931 150.552 34.8943 150.552V156.552C47.3771 156.552 57.8854 147.11 57.8854 134.999H51.8854ZM34.8943 150.552C25.2956 150.552 17.9033 143.382 17.9033 134.999H11.9033C11.9033 147.11 22.4116 156.552 34.8943 156.552V150.552ZM17.9033 134.999C17.9033 128.529 22.2634 122.822 28.7001 120.513L26.6734 114.865C18.152 117.923 11.9033 125.693 11.9033 134.999H17.9033ZM34.5442 102.462C34.4198 105.684 33.848 107.868 32.7173 109.652C31.573 111.457 29.6529 113.174 26.235 115.064L29.1385 120.314C33.0239 118.166 35.8956 115.845 37.7851 112.864C39.6883 109.861 40.3924 106.509 40.5398 102.694L34.5442 102.462ZM49.2983 90.8028C45.6328 90.4552 42.0536 91.232 39.2812 93.2559C36.4464 95.3254 34.696 98.5334 34.5442 102.462L40.5398 102.694C40.6234 100.529 41.5205 99.0499 42.819 98.102C44.1798 97.1085 46.2195 96.5377 48.7318 96.776L49.2983 90.8028Z" fill="#1C1F23"/>
</g>
</g>
<path id="Vector_18" d="M54.0977 105.948C54.0977 107.639 52.6661 109.044 50.8584 109.044C49.0507 109.044 47.6191 107.639 47.6191 105.948C47.6191 104.257 49.0507 102.853 50.8584 102.853C52.6661 102.853 54.0977 104.257 54.0977 105.948Z" fill="#C6CACD" stroke="#1C1F23"/>
<path id="Vector_19" d="M37.1187 95.0657C37.1187 96.8972 35.5779 98.4556 33.585 98.4556C31.5921 98.4556 30.0513 96.8972 30.0513 95.0657C30.0513 93.2342 31.5921 91.6758 33.585 91.6758C35.5779 91.6758 37.1187 93.2342 37.1187 95.0657Z" fill="#1C1F23" stroke="#1C1F23" stroke-width="3"/>
<path id="Vector_20" d="M147.224 155.647C147.116 159.23 148.491 160.533 151.929 161.727" stroke="#1C1F23"/>
</g>
</svg>
