<svg xmlns="http://www.w3.org/2000/svg" width="16" height="16" viewBox="0 0 16 16" fill="none">
  <path fill-rule="evenodd" clip-rule="evenodd" d="M2.99967 2.66659C2.81558 2.66659 2.66634 2.81582 2.66634 2.99992V12.9999C2.66634 13.184 2.81558 13.3333 2.99967 13.3333H12.9997C13.1838 13.3333 13.333 13.184 13.333 12.9999V2.99992C13.333 2.81582 13.1838 2.66659 12.9997 2.66659H2.99967ZM1.33301 2.99992C1.33301 2.07944 2.0792 1.33325 2.99967 1.33325H12.9997C13.9201 1.33325 14.6663 2.07944 14.6663 2.99992V12.9999C14.6663 13.9204 13.9201 14.6666 12.9997 14.6666H2.99967C2.0792 14.6666 1.33301 13.9204 1.33301 12.9999V2.99992ZM9.33301 8.16658V10.3333C9.33301 10.7014 9.03453 10.9999 8.66634 10.9999C8.29815 10.9999 7.99967 10.7014 7.99967 10.3333V6.33325C7.99967 5.96506 8.29815 5.66658 8.66634 5.66658C8.97966 5.66658 9.2425 5.88273 9.31388 6.17406C9.57552 6.06197 9.86368 5.99992 10.1663 5.99992C11.363 5.99992 12.333 6.96996 12.333 8.16658V10.3333C12.333 10.7014 12.0345 10.9999 11.6663 10.9999C11.2982 10.9999 10.9997 10.7014 10.9997 10.3333V8.16658C10.9997 7.70634 10.6266 7.33325 10.1663 7.33325C9.7061 7.33325 9.33301 7.70634 9.33301 8.16658ZM4.99967 6.33325V7.33325H6.83301C7.2012 7.33325 7.49967 7.63173 7.49967 7.99992C7.49967 8.36811 7.2012 8.66659 6.83301 8.66659H4.99967V9.66659H6.83301C7.2012 9.66659 7.49967 9.96506 7.49967 10.3333C7.49967 10.7014 7.2012 10.9999 6.83301 10.9999H4.33301C3.96482 10.9999 3.66634 10.7014 3.66634 10.3333V7.99992V5.66659C3.66634 5.2984 3.96482 4.99992 4.33301 4.99992H6.99967C7.36786 4.99992 7.66634 5.2984 7.66634 5.66659C7.66634 6.03477 7.36786 6.33325 6.99967 6.33325H4.99967Z" fill="white" fill-opacity="0.85"/>
</svg>