<svg width="16" height="16" viewBox="0 0 16 16" fill="none" xmlns="http://www.w3.org/2000/svg"><path fill-rule="evenodd" clip-rule="evenodd" d="M7.99996 1.99984C4.68625 1.99984 1.99996 4.68613 1.99996 7.99984C1.99996 9.75604 2.75448 11.336 3.95705 12.4333L9.45602 6.9343C9.57497 6.81532 9.69082 6.69944 9.79697 6.60933C9.91353 6.51038 10.0615 6.40399 10.2546 6.34124C10.5224 6.25423 10.8109 6.25423 11.0786 6.34124C11.2718 6.40399 11.4197 6.51038 11.5363 6.60933C11.6424 6.69944 11.7583 6.81531 11.8772 6.93429L13.9207 8.97773C13.9728 8.6595 14 8.33284 14 7.99984C14 4.68613 11.3137 1.99984 7.99996 1.99984ZM13.4874 10.4301L10.9495 7.89216C10.8097 7.75237 10.7328 7.67625 10.6734 7.62578C10.671 7.62377 10.6688 7.62188 10.6666 7.62011C10.6645 7.62188 10.6622 7.62377 10.6599 7.62578C10.6004 7.67625 10.5236 7.75237 10.3838 7.89215L5.05011 13.2258C5.9212 13.7186 6.92774 13.9998 7.99996 13.9998C10.4486 13.9998 12.5547 12.533 13.4874 10.4301ZM3.60654 13.872C4.83104 14.7896 6.35202 15.3332 7.99996 15.3332C12.05 15.3332 15.3333 12.0499 15.3333 7.99984C15.3333 3.94975 12.05 0.666504 7.99996 0.666504C3.94987 0.666504 0.666626 3.94975 0.666626 7.99984C0.666626 10.3961 1.81592 12.5239 3.59334 13.8621C3.59771 13.8654 3.60211 13.8687 3.60654 13.872ZM5.66663 4.99984C5.29844 4.99984 4.99996 5.29831 4.99996 5.6665C4.99996 6.03469 5.29844 6.33317 5.66663 6.33317C6.03482 6.33317 6.33329 6.03469 6.33329 5.6665C6.33329 5.29831 6.03482 4.99984 5.66663 4.99984ZM3.66663 5.6665C3.66663 4.56193 4.56206 3.6665 5.66663 3.6665C6.7712 3.6665 7.66663 4.56193 7.66663 5.6665C7.66663 6.77107 6.7712 7.6665 5.66663 7.6665C4.56206 7.6665 3.66663 6.77107 3.66663 5.6665Z" fill="#fff" fill-opacity="0.85"/></svg>
