<svg xmlns="http://www.w3.org/2000/svg" width="16" height="16" viewBox="0 0 16 16" fill="none">
  <g clip-path="url(#clip0_4858_25377)">
    <path d="M7.99967 1.3335C9.99967 2.66683 10.6148 5.52818 10.6663 8.00016C10.6148 10.4721 9.99968 13.3335 7.99968 14.6668M7.99967 1.3335C5.99967 2.66683 5.38451 5.52819 5.33301 8.00016C5.38451 10.4721 5.99968 13.3335 7.99968 14.6668M7.99967 1.3335C4.31778 1.3335 1.33301 4.31826 1.33301 8.00016M7.99967 1.3335C11.6816 1.3335 14.6663 4.31826 14.6663 8.00016M7.99968 14.6668C11.6816 14.6668 14.6663 11.6821 14.6663 8.00016M7.99968 14.6668C4.31778 14.6668 1.33301 11.6821 1.33301 8.00016M14.6663 8.00016C13.333 10.0002 10.4717 10.6153 7.99967 10.6668C5.5277 10.6153 2.66634 10.0002 1.33301 8.00016M14.6663 8.00016C13.333 6.00016 10.4717 5.38499 7.99967 5.3335C5.5277 5.38499 2.66634 6.00016 1.33301 8.00016" stroke="white" stroke-opacity="0.85" stroke-width="1.5" stroke-linecap="round" stroke-linejoin="round"/>
  </g>
  <defs>
    <clipPath id="clip0_4858_25377">
      <rect width="16" height="16" fill="white"/>
    </clipPath>
  </defs>
</svg>