<svg xmlns="http://www.w3.org/2000/svg" width="200" height="200" viewBox="0 0 200 200" fill="none">
  <g clip-path="url(#clip0_6273_4530)">
    <path d="M100.75 191.987C106.965 191.429 109.451 182.788 111.109 176.935L116.081 191.987H100.75Z" fill="black" stroke="black"/>
    <path d="M103.975 62.9743C100.034 57.9437 102.026 49.1557 111.32 39.9402C124.3 28.058 136.849 30.6854 137.437 30.9599C138.025 31.2344 150.441 40.0194 162.262 52.2647C174.084 64.5099 186.455 74.9969 186.607 91.7998C186.76 108.603 169.348 114.685 156.575 114.761C143.802 114.837 115.298 114.479 109.823 113.567C106.388 118.074 100.925 122.945 98.9103 124.001C103.137 127.633 118.228 142.977 120.043 146.217C121.858 149.458 129.765 160.736 126.135 178.496C124.472 186.634 117.966 190.801 111.244 192.108C111.244 192.108 102.038 192.056 98.9103 192.108C91.134 192.238 10.8905 192.108 8.55712 192.108C6.22371 192.108 5.55091 190.015 8.55712 183.91C11.5633 177.805 22.6468 158.542 28.4553 155.104C30.7668 153.8 35.9883 157.174 37.0857 157.956C38.1119 158.687 39.107 159.55 40.5294 159.432C41.9519 159.313 49.3682 159.28 51.7377 159.357C47.4524 156.357 31.7045 141.672 29.7801 134.527C28.2508 128.849 30.0808 125.569 30.8935 124.812C22.3649 119.824 13.6868 109.92 17.0826 95.2047C18.0351 91.077 20.6138 86.7769 22.5362 85.5382C26.1514 83.2087 38.418 82.0313 45.8564 81.352C78.5542 78.3659 153.042 79.448 155.304 79.4695C152.186 77.0944 140.105 63.5378 139.824 63.0812C139.051 65.2938 135.996 68.1035 133.713 67.7874C131.687 67.5069 130.56 64.3341 132.904 59.3074C132.097 60.1317 131.258 60.9141 130.413 61.6007C129.169 62.6124 127.609 62.8197 127.043 61.6007C126.544 60.5285 126.71 58.4841 127.862 55.7601C126.63 56.9222 125.403 57.8872 124.301 58.4453C120.612 60.312 119.7 53.2123 124.642 47.1704C117.539 50.6427 115.525 53.479 113.761 57.6388C112.674 60.2028 112.29 62.5533 109.299 63.8825C107.005 64.9022 105.084 64.3905 103.975 62.9743Z" fill="#C5C5C5"/>
    <path d="M124.642 47.1704C117.539 50.6427 115.525 53.479 113.761 57.6388C112.674 60.2028 112.29 62.5533 109.299 63.8825C107.005 64.9022 105.084 64.3905 103.975 62.9743C100.034 57.9437 102.026 49.1557 111.32 39.9402C124.3 28.058 136.849 30.6854 137.437 30.9599C138.025 31.2344 150.441 40.0194 162.262 52.2647C174.084 64.5099 186.455 74.9969 186.607 91.7998C186.76 108.603 169.348 114.685 156.575 114.761C143.802 114.837 115.298 114.479 109.823 113.567M124.642 47.1704C131.641 44.5726 131.28 42.1983 130.868 41.7279C130.456 41.2574 126.23 44.4651 124.642 47.1704ZM124.642 47.1704C119.7 53.2123 120.612 60.312 124.301 58.4453C129.149 55.9917 136.388 45.6727 135.943 45.3268C135.627 45.0809 133.869 46.0738 130.622 50.8241C127.081 56.0054 126.277 59.9522 127.043 61.6007C127.609 62.8197 129.169 62.6124 130.413 61.6007C135.206 57.7034 139.823 50.7163 139.577 50.5407C139.331 50.3651 137.734 50.9884 133.968 57.3084C130.289 63.4832 131.43 67.4713 133.713 67.7874C135.996 68.1035 139.051 65.2938 139.824 63.0812C140.105 63.5378 152.186 77.0944 155.304 79.4695M109.823 113.567C106.388 118.074 100.925 122.945 98.9103 124.001M109.823 113.567C113.407 108.653 116.584 103.629 118.136 98.2721M155.304 79.4695C153.042 79.448 78.5542 78.3659 45.8564 81.352C38.418 82.0313 26.1514 83.2087 22.5362 85.5382C20.6138 86.7769 18.0351 91.077 17.0826 95.2047C13.6868 109.92 22.3649 119.824 30.8935 124.812M155.304 79.4695C157.565 79.491 161.44 80.1644 161.108 82.5709C160.892 84.1323 156.391 80.4494 155.304 79.4695ZM98.9103 124.001C103.137 127.633 118.228 142.977 120.043 146.217C121.858 149.458 129.765 160.736 126.135 178.496C124.472 186.634 117.966 190.801 111.244 192.108C111.244 192.108 102.038 192.056 98.9103 192.108C91.134 192.238 10.8905 192.108 8.55712 192.108C6.22371 192.108 5.55091 190.015 8.55712 183.91C11.5633 177.805 22.6468 158.542 28.4553 155.104C30.7668 153.8 35.9883 157.174 37.0857 157.956C38.1119 158.687 39.107 159.55 40.5294 159.432C41.9519 159.313 49.3682 159.28 51.7377 159.357M98.9103 124.001C96.6184 124.001 90.7473 124.001 88.0983 124.001M51.7377 159.357C54.7965 159.456 61.3326 158.866 63.5849 160.9C65.6298 162.747 64.1438 165.492 61.0515 164.742C57.4141 163.859 52.9231 160.186 51.7377 159.357ZM51.7377 159.357C47.4524 156.357 31.7045 141.672 29.7801 134.527C28.2508 128.849 30.0808 125.569 30.8935 124.812M88.0983 124.001C80.0106 115.502 70.3944 107.822 65.2868 104.111M88.0983 124.001C88.9371 124.883 89.7595 125.773 90.5586 126.669C92.5021 128.847 99.0338 136.266 99.6836 140.816C100.053 143.403 99.7434 147.609 98.7774 151.776M30.8935 124.812C34.2283 126.6 42.7714 130.887 50.2655 133.724M50.2655 133.724C59.6332 137.271 69.4588 139.982 72.642 143.62C75.8252 147.258 71.8806 152.292 70.7289 156.371C70.4383 157.4 70.1065 158.961 70.4635 159.864C70.915 161.004 72.2388 161.227 74.2071 159.694C77.7323 156.949 80.8597 150.129 81.5105 148.122C82.1613 146.116 77.076 156.386 76.5336 160.921C75.9913 165.456 80.0218 164.713 82.7306 160.921C85.9031 156.479 87.5305 151.376 87.7474 150.4C87.9644 149.424 85.0148 155.845 84.1476 159.694C83.9139 160.732 83.3045 163.166 84.1476 164.136C85.1066 165.239 87.0189 164.95 89.2237 161.41C91.7405 157.368 93.6047 151.702 93.8216 150.4C94.0385 149.099 90.7676 157.706 90.2743 161.898C89.9279 164.84 90.9369 166.275 94.4519 161.898C96.4392 159.423 97.887 155.616 98.7774 151.776M50.2655 133.724C48.292 136.441 46.0144 139.015 39.4589 140.045M98.7774 151.776C101.961 154.697 106.121 160.024 107.019 165.952C107.917 171.881 107.019 179.415 97.6186 187.298M65.2868 104.111C59.5819 99.9652 56.3207 99.5478 53.8303 99.5478C50.1893 99.5478 49.3529 101.504 52.6708 102.748C55.9886 103.993 62.0198 104.111 65.2868 104.111ZM65.2868 104.111C67.8381 104.111 70.9827 104.111 72.2013 104.111" stroke="#17171A"/>
    <path fill-rule="evenodd" clip-rule="evenodd" d="M115.942 192.126L110.767 176.459L110.643 176.896C109.814 179.826 108.782 183.434 107.185 186.38C105.586 189.328 103.443 191.576 100.406 191.848L100.418 192.126H115.942Z" fill="#17171A"/>
    <path fill-rule="evenodd" clip-rule="evenodd" d="M122.415 137.352L127.509 146.829H120.059L114.965 137.352H122.415Z" fill="#C6CACD"/>
    <path d="M104.098 141.476H138.048L152.874 168.908H118.924L104.098 141.476Z" fill="#C5C5C5" stroke="#17171A"/>
    <path d="M183.115 155.135H139.52V193.996H183.115V155.135Z" fill="#6B7074" stroke="#17171A"/>
    <path d="M139.867 154.692L149.153 137.852H192.607L183.321 154.692H139.867Z" fill="#6B7074" stroke="#17171A"/>
    <path d="M139.407 155.135H111.223V193.996H139.407V155.135Z" fill="#6B7074" stroke="#17171A"/>
    <path fill-rule="evenodd" clip-rule="evenodd" d="M166.555 154.913L170.457 147.944H164.325L160.734 154.356H160.422V154.913V167.735H166.555V154.913Z" fill="#17171A"/>
    <path d="M45.5774 71.8461C63.8972 71.8461 78.7485 56.9949 78.7485 38.675C78.7485 20.3551 63.8972 5.50391 45.5774 5.50391C27.2575 5.50391 12.4062 20.3551 12.4062 38.675C12.4062 56.9949 27.2575 71.8461 45.5774 71.8461Z" fill="#47FFF2" fill-opacity="0.2"/>
    <path fill-rule="evenodd" clip-rule="evenodd" d="M48.8451 47.665C50.6169 47.215 51.7194 45.5669 51.3101 43.7853C51.0313 42.5717 51.5816 41.3761 52.4488 40.4825C55.4763 37.3627 57.5338 32.7049 56.1122 27.7053C55.3636 24.9884 53.3424 22.6095 50.6823 21.1086C47.7781 19.509 44.2091 19.2031 40.8065 20.2426L40.6351 20.3154C34.8586 22.2833 32.3341 27.3701 32.3795 32.2789C32.3985 34.3262 34.4988 35.484 36.4681 34.924C38.4719 34.3542 39.4408 32.1175 40.1024 30.1421C40.4935 28.9745 41.3593 27.9109 43.0312 27.3905C44.9896 26.7616 46.3819 27.1822 47.1872 27.6496C48.0653 28.2885 48.7719 29.0001 48.9642 29.9299C49.8114 32.4026 48.1391 35.1354 46.2275 36.3514C43.5443 38.0338 43.2011 41.8296 43.7704 45.1416C44.1314 47.2422 46.3155 48.3075 48.3813 47.7828L48.8451 47.665ZM48.8707 50.8187C51.0232 50.1214 53.3334 51.3012 54.0307 53.4537C54.7279 55.6062 53.5482 57.9164 51.3957 58.6136C49.2432 59.3109 46.933 58.1312 46.2357 55.9787C45.5385 53.8262 46.7182 51.5159 48.8707 50.8187Z" fill="#47FFF2"/>
    <path fill-rule="evenodd" clip-rule="evenodd" d="M98.6325 82.5785L98.522 82.5688L98.4877 82.6743C97.7016 85.0957 96.8311 87.9064 96.9691 90.7095C97.1077 93.5236 98.262 96.323 101.502 98.7181C104.667 101.057 108.08 100.494 110.687 98.5588C113.288 96.6288 115.105 93.324 115.105 90.1368C115.105 88.8872 114.291 87.8175 113.058 86.9175C111.823 86.0155 110.141 85.2636 108.343 84.6522C104.746 83.4288 100.649 82.7556 98.6325 82.5785ZM115.813 104.266C114.483 107.369 111.185 111.947 109.698 113.851L109.813 113.705L115.054 114.077L115.091 113.997C115.323 113.505 115.5 112.803 115.638 111.998C115.776 111.191 115.875 110.269 115.944 109.334C116.082 107.464 116.103 105.529 116.08 104.318L115.813 104.266ZM30.8576 124.273L30.697 124.171L29.3633 129.209L29.4735 129.257C33.8679 131.154 43.5848 133.309 50.5631 133.867L50.625 133.599C42.8485 130.557 34.4308 126.532 30.8576 124.273Z" fill="#17171A"/>
    <path d="M71.0312 48.9888C76.28 50.2249 87.1507 55.3866 88.6438 66.1442" stroke="#17171A"/>
    <path d="M108.086 96.5774C102.36 96.5774 97.7188 91.936 97.7188 86.2106C97.7188 80.4851 102.36 75.8438 108.086 75.8438C113.811 75.8438 118.453 80.4851 118.453 86.2106C118.453 91.936 113.811 96.5774 108.086 96.5774Z" fill="#C5C5C5" stroke="#17171A" stroke-miterlimit="10"/>
    <path fill-rule="evenodd" clip-rule="evenodd" d="M110.798 85.8621C110.695 85.6555 110.444 85.5718 110.237 85.6751C108.822 86.3824 107.281 86.5592 106.711 86.5592C106.48 86.5592 106.293 86.7464 106.293 86.9773C106.293 87.2082 106.48 87.3954 106.711 87.3954C107.38 87.3954 109.056 87.2008 110.611 86.4231C110.818 86.3198 110.901 86.0686 110.798 85.8621ZM108.136 89.3776C108.101 88.8916 108.466 88.469 108.952 88.4337C109.438 88.3983 109.861 88.7637 109.896 89.2497C109.931 89.7357 109.566 90.1584 109.08 90.1937C108.594 90.229 108.171 89.8637 108.136 89.3776ZM115.239 88.4333C114.753 88.4687 114.388 88.8913 114.423 89.3773C114.458 89.8633 114.881 90.2286 115.367 90.1933C115.853 90.158 116.218 89.7354 116.183 89.2494C116.148 88.7634 115.725 88.398 115.239 88.4333Z" fill="#17171A"/>
    <path d="M100.585 87.3134C100.585 87.3134 94.8501 80.6963 99.9232 76.2848C106.541 70.3294 121.098 75.8437 121.098 75.8437C121.098 75.8437 120.878 82.902 116.246 83.7843C111.834 84.446 103.673 81.358 103.673 81.358L100.585 87.3134Z" fill="#17171A"/>
    <path d="M98.3773 88.637C96.9155 88.637 95.7305 87.452 95.7305 85.9902C95.7305 84.5283 96.9155 83.3433 98.3773 83.3433C99.8392 83.3433 101.024 84.5283 101.024 85.9902C101.024 87.452 99.8392 88.637 98.3773 88.637Z" fill="#C5C5C5" stroke="#17171A" stroke-miterlimit="10"/>
  </g>
  <defs>
    <clipPath id="clip0_6273_4530">
      <rect width="200" height="200" fill="white"/>
    </clipPath>
  </defs>
</svg>
