<svg width="226" height="226" viewBox="0 0 226 226" fill="none" xmlns="http://www.w3.org/2000/svg">
<rect x="1" y="1" width="224" height="224" rx="4" fill="white" fill-opacity="0.08"/>
<rect x="1" y="1" width="224" height="224" rx="4" stroke="#2E2E30"/>
<path fill-rule="evenodd" clip-rule="evenodd" d="M124.666 100.497C124.666 99.8522 124.144 99.3299 123.5 99.3299C122.855 99.3299 122.333 99.8522 122.333 100.497V102.25L120.342 100.757C119.414 100.06 118.114 100.153 117.293 100.974L114.778 103.488L111.044 100.287C110.148 99.519 108.819 99.5411 107.949 100.339L103.666 104.265V91.7466C103.666 91.4244 103.928 91.1632 104.25 91.1632H113C113.644 91.1632 114.166 90.6409 114.166 89.9966C114.166 89.3522 113.644 88.8299 113 88.8299H104.25C102.639 88.8299 101.333 90.1357 101.333 91.7466V109.247C101.333 110.857 102.639 112.163 104.25 112.163H121.75C123.36 112.163 124.666 110.857 124.666 109.247V100.497ZM118.943 102.624L122.333 105.167V109.247C122.333 109.569 122.072 109.83 121.75 109.83H104.25C103.928 109.83 103.666 109.569 103.666 109.247V107.43L109.526 102.059L116.907 108.386C117.396 108.805 118.133 108.748 118.552 108.259C118.971 107.77 118.915 107.033 118.426 106.614L116.555 105.011L118.943 102.624Z" fill="#F76965"/>
<path d="M117.425 89.7584C117.88 89.3027 118.619 89.3027 119.075 89.7584L120.583 91.2667L122.091 89.7584C122.547 89.3027 123.286 89.3027 123.741 89.7584C124.197 90.214 124.197 90.9527 123.741 91.4083L122.233 92.9166L123.741 94.425C124.197 94.8806 124.197 95.6193 123.741 96.0749C123.286 96.5305 122.547 96.5305 122.091 96.0749L120.583 94.5666L119.075 96.0749C118.619 96.5305 117.88 96.5305 117.425 96.0749C116.969 95.6193 116.969 94.8806 117.425 94.425L118.933 92.9166L117.425 91.4083C116.969 90.9527 116.969 90.214 117.425 89.7584Z" fill="#F76965"/>
<path d="M91.892 126.768C91.412 127.86 90.8 128.772 90.056 129.516L89.504 128.808C90.632 127.632 91.4 126.036 91.796 124.032L92.672 124.188C92.54 124.812 92.384 125.388 92.204 125.928H94.772V123.792H95.648V125.928H99.596V126.768H95.648V129.54H99.356V130.38H95.648V133.428H100.364V134.292H89.792V133.428H94.772V130.38H91.244V129.54H94.772V126.768H91.892ZM109.928 123.66C110.504 124.092 110.996 124.536 111.404 124.98L110.852 125.532H112.316V126.36H108.62C108.704 127.848 108.86 129.024 109.076 129.888C109.148 130.188 109.232 130.464 109.316 130.728C109.916 129.768 110.396 128.64 110.768 127.356L111.548 127.692C111.068 129.276 110.444 130.62 109.676 131.7C109.844 132.084 110.024 132.42 110.216 132.696C110.612 133.272 110.936 133.56 111.176 133.56C111.392 133.548 111.596 132.924 111.776 131.688L112.556 132.12C112.268 133.716 111.86 134.52 111.32 134.52C110.816 134.52 110.276 134.16 109.7 133.44C109.484 133.152 109.28 132.816 109.1 132.444C108.26 133.428 107.276 134.16 106.148 134.664L105.668 133.944C106.868 133.404 107.888 132.612 108.716 131.568C108.548 131.124 108.392 130.644 108.26 130.128C107.996 129.12 107.828 127.86 107.732 126.36H103.616V128.352H106.556C106.532 130.38 106.436 131.688 106.28 132.276C106.124 132.792 105.752 133.056 105.152 133.08C104.864 133.08 104.516 133.056 104.132 133.032L103.868 132.252C104.336 132.276 104.732 132.288 105.056 132.288C105.32 132.276 105.488 132.096 105.56 131.76C105.632 131.352 105.668 130.488 105.692 129.168H103.616V129.528C103.568 131.676 103.088 133.404 102.2 134.7L101.54 134.112C102.308 133.008 102.704 131.484 102.74 129.528V125.532H107.696C107.672 124.932 107.66 124.32 107.66 123.672H108.548C108.548 124.344 108.56 124.956 108.584 125.532H110.828C110.468 125.1 109.988 124.656 109.376 124.188L109.928 123.66ZM115.976 123.948L116.78 124.26C116.588 124.812 116.372 125.328 116.144 125.808H118.568V123.708H119.456V125.808H123.476V126.648H119.456V127.428C119.432 128.004 119.384 128.544 119.3 129.048H124.256V129.876H119.792C120.38 131.604 121.928 132.948 124.436 133.908L123.956 134.664C121.34 133.536 119.708 132.012 119.06 130.068C118.832 130.86 118.508 131.544 118.088 132.12C117.26 133.212 115.904 134.064 114.008 134.676L113.54 133.944C115.412 133.32 116.732 132.516 117.476 131.52C117.788 131.04 118.04 130.488 118.22 129.876H113.756V129.048H118.4C118.496 128.544 118.544 128.004 118.568 127.428V126.648H115.7C115.268 127.356 114.8 127.956 114.284 128.436L113.552 127.8C114.632 126.84 115.436 125.556 115.976 123.948ZM132.572 126.384C132.524 126.516 132.488 126.648 132.44 126.768C132.62 128.376 133.052 129.768 133.724 130.944C134.348 129.672 134.696 128.148 134.744 126.384H132.572ZM131.9 128.052C131.66 128.508 131.408 128.892 131.12 129.216L130.616 128.568C131.492 127.404 132.056 125.76 132.296 123.648L133.148 123.756C133.052 124.404 132.932 125.004 132.8 125.556H136.316V126.384H135.548C135.488 128.496 135.056 130.272 134.24 131.736C134.864 132.576 135.62 133.296 136.532 133.896L136.064 134.712C135.152 134.1 134.384 133.368 133.76 132.516C133.16 133.38 132.404 134.1 131.504 134.7L131.036 133.944C131.948 133.368 132.692 132.636 133.268 131.772C132.62 130.692 132.164 129.456 131.9 128.052ZM130.412 124.176V131.688H129.62V124.98H126.776V131.688H125.984V124.176H130.412ZM129.032 132.036C129.716 132.708 130.292 133.368 130.76 134.028L130.124 134.652C129.728 134.004 129.176 133.32 128.468 132.588L129.032 132.036ZM127.832 125.88H128.588V129.54C128.564 130.932 128.36 132.036 127.964 132.864C127.556 133.644 126.908 134.244 126.02 134.676L125.552 133.932C126.392 133.524 126.992 132.972 127.328 132.3C127.64 131.592 127.808 130.668 127.832 129.54V125.88Z" fill="#F76965"/>
</svg>
