<svg xmlns="http://www.w3.org/2000/svg" width="16" height="16" viewBox="0 0 16 16" fill="none">
  <path fill-rule="evenodd" clip-rule="evenodd" d="M2.66634 2.99992C2.66634 2.81582 2.81558 2.66659 2.99967 2.66659H12.9997C13.1838 2.66659 13.333 2.81582 13.333 2.99992V12.9999C13.333 13.184 13.1838 13.3333 12.9997 13.3333H2.99967C2.81558 13.3333 2.66634 13.184 2.66634 12.9999V2.99992ZM2.99967 1.33325C2.0792 1.33325 1.33301 2.07944 1.33301 2.99992V12.9999C1.33301 13.9204 2.0792 14.6666 2.99967 14.6666H12.9997C13.9201 14.6666 14.6663 13.9204 14.6663 12.9999V2.99992C14.6663 2.07944 13.9201 1.33325 12.9997 1.33325H2.99967ZM7.99967 3.99992C8.36786 3.99992 8.66634 4.2984 8.66634 4.66658V5.33325H11.333C11.7012 5.33325 11.9997 5.63173 11.9997 5.99992V9.33325C11.9997 9.70144 11.7012 9.99992 11.333 9.99992H8.66634V11.6666C8.66634 12.0348 8.36786 12.3333 7.99967 12.3333C7.63148 12.3333 7.33301 12.0348 7.33301 11.6666V9.99992H4.66634C4.29815 9.99992 3.99967 9.70144 3.99967 9.33325V5.99992C3.99967 5.63173 4.29815 5.33325 4.66634 5.33325H7.33301V4.66658C7.33301 4.2984 7.63148 3.99992 7.99967 3.99992ZM5.33301 6.66658H7.33301V8.66658H5.33301V6.66658ZM8.66634 6.66658V8.66658H10.6663V6.66658H8.66634Z" fill="white" fill-opacity="0.85"/>
</svg>