<svg xmlns="http://www.w3.org/2000/svg" width="20" height="20" viewBox="0 0 20 20" fill="none">
  <path d="M2.03449 18.1861C1.08437 17.4844 0.778915 16.1997 1.31153 15.1455L7.95028 2.00484C8.48255 0.951264 9.81617 0.600066 10.7983 1.25483C11.5884 1.78152 11.8896 2.79725 11.5146 3.66955L5.69874 17.1945C5.08213 18.6285 3.29009 19.1135 2.03449 18.1861Z" fill="white" fill-opacity="0.5"/>
  <path fill-rule="evenodd" clip-rule="evenodd" d="M9.03149 13.816L12.6376 16.3023L10.065 11.4126L9.03149 13.816Z" fill="white" fill-opacity="0.5"/>
  <path fill-rule="evenodd" clip-rule="evenodd" d="M10.8547 9.32987L15.0986 17.2429C15.5573 18.0982 16.5915 18.4641 17.486 18.0874C18.4731 17.6718 18.9144 16.517 18.456 15.549L13.0733 4.18237C13.0244 4.38667 12.9566 4.58836 12.8694 4.78494L10.8547 9.32987Z" fill="white" fill-opacity="0.5"/>
</svg>
