<svg width="1em" height="1em" viewBox="0 0 12 13" fill="none" xmlns="http://www.w3.org/2000/svg">
<path fill-rule="evenodd" clip-rule="evenodd" d="M4.37935 1H7.62065C8.02314 0.999994 8.35532 0.999989 8.62591 1.0221C8.90696 1.04506 9.16531 1.09434 9.40798 1.21799C9.78431 1.40973 10.0903 1.7157 10.282 2.09202C10.4057 2.33469 10.4549 2.59304 10.4779 2.87409C10.5 3.14468 10.5 3.47686 10.5 3.87934V5.75C10.5 6.02614 10.2761 6.25 10 6.25C9.72386 6.25 9.5 6.02614 9.5 5.75V3.9C9.5 3.47171 9.49961 3.18056 9.48122 2.95552C9.46331 2.73631 9.43085 2.62421 9.39101 2.54601C9.29513 2.35785 9.14215 2.20487 8.95399 2.10899C8.87579 2.06915 8.76369 2.03669 8.54448 2.01878C8.31944 2.00039 8.02829 2 7.6 2H4.4C3.97171 2 3.68056 2.00039 3.45552 2.01878C3.23631 2.03669 3.12421 2.06915 3.04601 2.10899C2.85785 2.20487 2.70487 2.35785 2.60899 2.54601C2.56915 2.62421 2.53669 2.73631 2.51878 2.95552C2.50039 3.18056 2.5 3.47171 2.5 3.9V9.1C2.5 9.52829 2.50039 9.81944 2.51878 10.0445C2.53669 10.2637 2.56915 10.3758 2.60899 10.454C2.70487 10.6422 2.85785 10.7951 3.04601 10.891C3.12421 10.9309 3.23631 10.9633 3.45552 10.9812C3.68056 10.9996 3.97171 11 4.4 11H5.75C6.02614 11 6.25 11.2239 6.25 11.5C6.25 11.7761 6.02614 12 5.75 12H4.37934C3.97686 12 3.64468 12 3.37409 11.9779C3.09304 11.9549 2.83469 11.9057 2.59202 11.782C2.2157 11.5903 1.90973 11.2843 1.71799 10.908C1.59434 10.6653 1.54506 10.407 1.5221 10.1259C1.49999 9.85532 1.49999 9.52314 1.5 9.12065V3.87935C1.49999 3.47687 1.49999 3.14469 1.5221 2.87409C1.54506 2.59304 1.59434 2.33469 1.71799 2.09202C1.90973 1.7157 2.2157 1.40973 2.59202 1.21799C2.83469 1.09434 3.09304 1.04506 3.37409 1.0221C3.64469 0.999989 3.97687 0.999994 4.37935 1ZM9 8.25C8.30964 8.25 7.75 8.80964 7.75 9.5C7.75 10.1904 8.30964 10.75 9 10.75C9.69036 10.75 10.25 10.1904 10.25 9.5C10.25 8.80964 9.69036 8.25 9 8.25ZM6.75 9.5C6.75 8.25736 7.75736 7.25 9 7.25C10.2426 7.25 11.25 8.25736 11.25 9.5C11.25 9.94027 11.1235 10.351 10.905 10.6979L11.3536 11.1464C11.5488 11.3417 11.5488 11.6583 11.3536 11.8536C11.1583 12.0488 10.8417 12.0488 10.6464 11.8536L10.1979 11.405C9.85101 11.6235 9.44027 11.75 9 11.75C7.75736 11.75 6.75 10.7426 6.75 9.5Z" fill="currentColor"/>
</svg>
