<svg width="14" height="14" viewBox="0 0 14 14" fill="none" xmlns="http://www.w3.org/2000/svg">
<g id="general/apps">
<path id="Vector" fill-rule="evenodd" clip-rule="evenodd" d="M2.04134 1.45801C1.71918 1.45801 1.45801 1.71918 1.45801 2.04134V5.83301C1.45801 6.15517 1.71918 6.41634 2.04134 6.41634H5.83301C6.15517 6.41634 6.41634 6.15517 6.41634 5.83301V2.04134C6.41634 1.71918 6.15517 1.45801 5.83301 1.45801H2.04134ZM2.62467 5.24967V2.62467H5.24967V5.24967H2.62467ZM8.16634 1.45801C7.84418 1.45801 7.58301 1.71918 7.58301 2.04134V5.83301C7.58301 6.15517 7.84418 6.41634 8.16634 6.41634H11.958C12.2802 6.41634 12.5413 6.15517 12.5413 5.83301V2.04134C12.5413 1.71918 12.2802 1.45801 11.958 1.45801H8.16634ZM8.74967 5.24967V2.62467H11.3747V5.24967H8.74967ZM1.45801 8.16634C1.45801 7.84418 1.71918 7.58301 2.04134 7.58301H5.83301C6.15517 7.58301 6.41634 7.84418 6.41634 8.16634V11.958C6.41634 12.2802 6.15517 12.5413 5.83301 12.5413H2.04134C1.71918 12.5413 1.45801 12.2802 1.45801 11.958V8.16634ZM2.62467 8.74967V11.3747H5.24967V8.74967H2.62467ZM8.16634 7.58301C7.84418 7.58301 7.58301 7.84418 7.58301 8.16634V11.958C7.58301 12.2802 7.84418 12.5413 8.16634 12.5413H11.958C12.2802 12.5413 12.5413 12.2802 12.5413 11.958V8.16634C12.5413 7.84418 12.2802 7.58301 11.958 7.58301H8.16634ZM8.74967 11.3747V8.74967H11.3747V11.3747H8.74967Z" fill="white" fill-opacity="0.7"/>
</g>
</svg>
