<svg xmlns="http://www.w3.org/2000/svg" width="20" height="20" viewBox="0 0 20 20" fill="none">
  <path d="M13.5295 7.87132C13.232 6.76121 12.4379 5.8329 11.3219 5.29063C10.2058 4.74835 8.85921 4.63652 7.57831 4.97973C6.29742 5.32295 5.18714 6.0931 4.49174 7.12075C3.79634 8.14841 3.57278 9.3494 3.87023 10.4595C4.36238 12.2962 4.26681 13.7615 3.95602 14.875C3.6018 16.144 3.42469 16.7786 3.47254 16.906C3.52728 17.0517 3.56688 17.0918 3.71207 17.148C3.83898 17.1972 4.37212 17.0543 5.43841 16.7686L15.326 14.1192C16.3922 13.8335 16.9254 13.6907 17.0107 13.5846C17.1083 13.4633 17.1226 13.4089 17.0971 13.2553C17.0749 13.121 16.6042 12.66 15.6629 11.7381C14.8371 10.9292 14.0216 9.70803 13.5295 7.87132Z" fill="url(#paint0_linear_3160_8755)"/>
  <path d="M11.9921 15.0126C12.3494 16.3462 11.558 17.7171 10.2243 18.0744C8.89063 18.4318 7.51979 17.6403 7.16243 16.3067M9.07584 4.78428C9.32935 4.3282 9.41285 3.77695 9.26713 3.23312C8.96934 2.12173 7.82697 1.46219 6.71558 1.75998C5.60419 2.05778 4.94465 3.20015 5.24244 4.31153C5.38816 4.85536 5.73611 5.29101 6.18369 5.55923M13.5295 7.87132C13.232 6.76121 12.4379 5.8329 11.3219 5.29063C10.2058 4.74835 8.85921 4.63652 7.57831 4.97973C6.29742 5.32295 5.18714 6.0931 4.49174 7.12075C3.79634 8.14841 3.57278 9.3494 3.87023 10.4595C4.36238 12.2962 4.26681 13.7615 3.95602 14.875C3.6018 16.144 3.42469 16.7786 3.47254 16.906C3.52728 17.0517 3.56688 17.0918 3.71207 17.148C3.83898 17.1972 4.37212 17.0543 5.43841 16.7686L15.326 14.1192C16.3922 13.8335 16.9254 13.6907 17.0107 13.5846C17.1083 13.4633 17.1226 13.4089 17.0971 13.2553C17.0749 13.121 16.6042 12.66 15.6629 11.7381C14.8371 10.9292 14.0216 9.70803 13.5295 7.87132Z" stroke="url(#paint1_linear_3160_8755)" stroke-width="2" stroke-linecap="round" stroke-linejoin="round"/>
  <defs>
    <linearGradient id="paint0_linear_3160_8755" x1="17.1082" y1="1.68848" x2="0.61565" y2="5.35936" gradientUnits="userSpaceOnUse">
      <stop stop-color="#47FFF2"/>
      <stop offset="1" stop-color="#0AD3FB"/>
    </linearGradient>
    <linearGradient id="paint1_linear_3160_8755" x1="17.1082" y1="1.68848" x2="0.61565" y2="5.35936" gradientUnits="userSpaceOnUse">
      <stop stop-color="#47FFF2"/>
      <stop offset="1" stop-color="#0AD3FB"/>
    </linearGradient>
  </defs>
</svg>